<?xml version="1.0" encoding="UTF-8"?>
<svg version="1.1" xmlns="http://www.w3.org/2000/svg" width="698" height="400">
<path d="M0 0 C230.34 0 460.68 0 698 0 C698 132 698 264 698 400 C467.66 400 237.32 400 0 400 C0 268 0 136 0 0 Z " fill="#BE1925" transform="translate(0,0)"/>
<path d="M0 0 C10.89 0 21.78 0 33 0 C34.32 2.51625 35.64 5.0325 37 7.625 C40.58086909 14.4166867 44.29668882 21.1104258 48.14453125 27.75390625 C50.44787003 31.78353683 52.62371151 35.87497874 54.7734375 39.98828125 C55.84277305 42.1425803 55.84277305 42.1425803 58 43 C58.12366943 42.41532959 58.24733887 41.83065918 58.37475586 41.22827148 C59.00358761 38.98721433 59.81568554 37.34069 61.00390625 35.34765625 C61.4110083 34.65986084 61.81811035 33.97206543 62.23754883 33.26342773 C62.67478271 32.53712158 63.1120166 31.81081543 63.5625 31.0625 C64.01069092 30.30976807 64.45888184 29.55703613 64.9206543 28.78149414 C68.88173733 22.14736519 72.91711442 15.55983617 77 9 C77.51820313 8.16082031 78.03640625 7.32164062 78.5703125 6.45703125 C81.87063953 1.12936047 81.87063953 1.12936047 83 0 C93.56 0 104.12 0 115 0 C115 49.5 115 99 115 150 C106.09 150 97.18 150 88 150 C87.505 96.045 87.505 96.045 87 41 C83.04 47.27 79.08 53.54 75 60 C70.6875 66.4375 70.6875 66.4375 68.80859375 69.20703125 C66.20899745 73.22152662 63.91468424 77.39565682 61.640625 81.6015625 C59.92614268 84.10797237 58.80906099 84.96186877 56 86 C50.87901937 78.09330075 45.83066903 70.15388587 40.921875 62.11328125 C38.49345368 58.17943615 35.97963084 54.3038089 33.4453125 50.4375 C32.0113576 48.01915444 30.96924585 45.63484308 30 43 C29.34 43 28.68 43 28 43 C28 42.01 28 41.02 28 40 C27.34 40 26.68 40 26 40 C26 76.3 26 112.6 26 150 C17.42 150 8.84 150 0 150 C0 100.5 0 51 0 0 Z " fill="#FDFCFC" transform="translate(76,125)"/>
<path d="M0 0 C6.93 0 13.86 0 21 0 C21 14.85 21 29.7 21 45 C26.29000495 41.03249629 31.08851299 37.21564933 35.8125 32.6875 C40.02650047 28.70393056 44.27863025 24.87327513 48.8125 21.25 C52.27961383 18.47732271 55.46425287 15.61699487 58.5625 12.4375 C60.03846997 10.95514353 61.51798753 9.47631538 63 8 C63.68940674 7.28529541 64.37881348 6.57059082 65.08911133 5.83422852 C71.23758122 0.13148421 75.89185339 -0.87071382 84.1875 -0.703125 C86.1365625 -0.60257812 86.1365625 -0.60257812 88.125 -0.5 C89.47645562 -0.45977424 90.82802799 -0.42328956 92.1796875 -0.390625 C95.45616604 -0.29701133 98.72652575 -0.16600416 102 0 C100.41091724 3.35922253 98.6486857 5.62078993 96 8.25 C94.948125 9.30960938 94.948125 9.30960938 93.875 10.390625 C92 12 92 12 90 12 C89.67 12.99 89.34 13.98 89 15 C87.5390625 16.4375 87.5390625 16.4375 85.625 18 C81.38036035 21.57564753 77.517989 25.44004549 73.68212891 29.44335938 C72.49074595 30.66507155 71.24897714 31.83723172 70 33 C69.34 33 68.68 33 68 33 C67.69449219 33.79470703 67.69449219 33.79470703 67.3828125 34.60546875 C65.39895278 38.04079646 62.69752332 40.55091752 59.875 43.3125 C59.33101562 43.85583984 58.78703125 44.39917969 58.2265625 44.95898438 C55.32459617 47.83043938 52.35794469 50.57807866 49.2578125 53.234375 C43.9093248 57.86582261 38.97728247 62.91500053 34 67.9375 C33.02497614 68.9175531 32.0497172 69.8973724 31.07421875 70.87695312 C28.71383382 73.24902313 26.35583095 75.6234086 24 78 C26.65577334 80.68224658 29.29446812 83.34315019 32.1640625 85.796875 C32.72295166 86.27576172 33.28184082 86.75464844 33.85766602 87.24804688 C34.44088623 87.74369141 35.02410645 88.23933594 35.625 88.75 C36.24109131 89.27658203 36.85718262 89.80316406 37.49194336 90.34570312 C41.13916617 93.45261411 44.82959288 96.49613348 48.5625 99.5 C54.40479785 104.2457962 59.88327646 109.34654125 65.37695312 114.48583984 C69.88570223 118.69210668 74.4476547 122.84106726 79 127 C79.88816406 127.81726563 80.77632812 128.63453125 81.69140625 129.4765625 C91.37055335 139.2643833 91.37055335 139.2643833 103.796875 143.28125 C109.70063777 142.52757816 115.35251686 140.60825735 119.625 136.4375 C123.03990749 130.38380035 122.54615409 123.76333281 122 117 C120.56548723 112.06468145 118.45924593 108.66650855 114 106 C110.54882717 105.13366239 110.54882717 105.13366239 106.75 104.5625 C96.43420481 102.67350052 90.1147837 99.76775864 84 91 C79.96339617 84.38684053 80.12362762 76.49129854 81 69 C83.17901595 61.56511688 87.63413305 56.30669105 94 52 C98.12459397 50.10268677 101.48452197 49.78497724 106 50 C106 52.97 106 55.94 106 59 C105.00419922 59.34611328 105.00419922 59.34611328 103.98828125 59.69921875 C98.61798523 61.68270035 94.66148343 63.39361762 91 68 C89.9458482 71.16245541 89.68724328 73.86948218 89.4375 77.1875 C89.35371094 78.27417969 89.26992188 79.36085938 89.18359375 80.48046875 C89.12300781 81.31191406 89.06242188 82.14335937 89 83 C89.66 83 90.32 83 91 83 C91.515625 84.0725 92.03125 85.145 92.5625 86.25 C95.71542311 91.6164479 99.6560844 93.38661451 105.5078125 94.91796875 C106.81748001 95.23791526 108.12738284 95.55689977 109.4375 95.875 C118.14339748 98.01664865 124.11947138 101.63350123 129.03515625 109.23046875 C132.7520895 116.04735442 133.22217833 124.22933799 131.3125 131.68359375 C128.63361785 139.01703363 124.48171186 144.80676051 117.89807129 149.12026978 C114.09506729 150.8829104 110.01068434 150.65203216 105.88671875 150.671875 C104.43323784 150.6918454 104.43323784 150.6918454 102.95039368 150.71221924 C100.90556395 150.73241448 98.86060318 150.74185506 96.81567383 150.74121094 C93.7062566 150.7499473 90.60255153 150.82258055 87.49414062 150.8984375 C70.86787528 151.08617789 70.86787528 151.08617789 65.3671875 146.1640625 C64.22771751 144.79002379 63.10429495 143.40246459 62 142 C60.51281885 140.83087586 58.99473354 139.69904968 57.4375 138.625 C55.43359375 137.2265625 55.43359375 137.2265625 54 136 C54 135.34 54 134.68 54 134 C53.48050781 133.78859375 52.96101562 133.5771875 52.42578125 133.359375 C48.96556883 131.42031876 46.16146398 128.85818231 43.1875 126.25 C42.59646484 125.73695313 42.00542969 125.22390625 41.39648438 124.6953125 C40.20363826 123.65986484 39.01335892 122.62145271 37.82568359 121.58007812 C36.56059205 120.48517675 35.28113456 119.40673948 33.99072266 118.34179688 C33.35054199 117.81134766 32.71036133 117.28089844 32.05078125 116.734375 C31.46594971 116.25709961 30.88111816 115.77982422 30.27856445 115.28808594 C29 114 29 114 29 112 C26.66785852 110.79371992 24.50357861 109.8345262 22 109 C22 122.53 22 136.06 22 150 C14.74 150 7.48 150 0 150 C0 100.5 0 51 0 0 Z " fill="#FBFBFB" transform="translate(490,125)"/>
<path d="M0 0 C2.40076976 2.15967945 3.62605965 4.01666205 4.7890625 7.01953125 C5.09070313 7.79490234 5.39234375 8.57027344 5.703125 9.36914062 C6.00734375 10.17544922 6.3115625 10.98175781 6.625 11.8125 C6.93695313 12.60720703 7.24890625 13.40191406 7.5703125 14.22070312 C9.20146501 18.47083974 10.45766814 22.44880969 11 27 C11.66 27 12.32 27 13 27 C13.28198242 27.77077881 13.56396484 28.54155762 13.85449219 29.33569336 C14.9181199 32.23845622 15.98452874 35.14017875 17.05273438 38.04125977 C17.7351733 39.89717824 18.41449659 41.75424141 19.09375 43.61132812 C21.28417205 49.55445854 23.53448098 55.42131365 26.16894531 61.18237305 C27.18590361 63.40659589 28.1042162 65.6620492 29 67.9375 C30.02872299 70.55012983 31.06483558 73.15631592 32.140625 75.75 C32.50671875 76.636875 32.8728125 77.52375 33.25 78.4375 C33.75273437 79.64212891 33.75273437 79.64212891 34.265625 80.87109375 C35 83 35 83 35 86 C29.72 86 24.44 86 19 86 C18.67 84.02 18.34 82.04 18 80 C17.34 80 16.68 80 16 80 C15.32942113 78.2097939 14.6636531 76.41778511 14 74.625 C13.62875 73.62726563 13.2575 72.62953125 12.875 71.6015625 C12 69 12 69 12 67 C4.08 67 -3.84 67 -12 67 C-12.33 68.65 -12.66 70.3 -13 72 C-13.65146849 74.33762223 -14.31526605 76.67190457 -15 79 C-15.66 79 -16.32 79 -17 79 C-17.144375 79.969375 -17.28875 80.93875 -17.4375 81.9375 C-18 85 -18 85 -19 86 C-21.69654854 86.07319621 -24.36691458 86.09242537 -27.0625 86.0625 C-27.82111328 86.05798828 -28.57972656 86.05347656 -29.36132812 86.04882812 C-31.24091871 86.0370068 -33.12046899 86.01907078 -35 86 C-34.34578824 81.866921 -32.99650394 78.38576355 -31.3125 74.5625 C-30.91321289 73.64670166 -30.91321289 73.64670166 -30.50585938 72.71240234 C-29.67481543 70.80637862 -28.8379491 68.90299668 -28 67 C-24.90209315 59.93613528 -21.90626059 52.86766954 -19.25 45.625 C-15.57358124 35.61161276 -11.39485132 25.80475253 -7.24951172 15.97851562 C-6.36322898 13.86584478 -5.48551202 11.7495713 -4.61376953 9.63085938 C-4.16501465 8.54095703 -3.71625977 7.45105469 -3.25390625 6.328125 C-2.84599854 5.33200195 -2.43809082 4.33587891 -2.01782227 3.30957031 C-1 1 -1 1 0 0 Z " fill="#FAFBFB" transform="translate(260,189)"/>
<path d="M0 0 C5.61 0 11.22 0 17 0 C17 24.42 17 48.84 17 74 C33.5 74 50 74 67 74 C67 77.96 67 81.92 67 86 C44.89 86 22.78 86 0 86 C0 57.62 0 29.24 0 0 Z " fill="#FBFDFC" transform="translate(331,188)"/>
<path d="M0 0 C5.94 0 11.88 0 18 0 C18 28.71 18 57.42 18 87 C12.06 87 6.12 87 0 87 C0 58.29 0 29.58 0 0 Z " fill="#FDFDFD" transform="translate(435,187)"/>
<path d="M0 0 C0 2.97 0 5.94 0 9 C-0.66386719 9.23074219 -1.32773437 9.46148437 -2.01171875 9.69921875 C-7.38201477 11.68270035 -11.33851657 13.39361762 -15 18 C-16.0541518 21.16245541 -16.31275672 23.86948218 -16.5625 27.1875 C-16.64628906 28.27417969 -16.73007812 29.36085937 -16.81640625 30.48046875 C-16.87699219 31.31191406 -16.93757812 32.14335937 -17 33 C-16.34 33 -15.68 33 -15 33 C-14.484375 34.0725 -13.96875 35.145 -13.4375 36.25 C-10.28457689 41.6164479 -6.3439156 43.38661451 -0.4921875 44.91796875 C0.81748001 45.23791526 2.12738284 45.55689977 3.4375 45.875 C12.14339748 48.01664865 18.11947138 51.63350123 23.03515625 59.23046875 C26.7520895 66.04735442 27.22217833 74.22933799 25.3125 81.68359375 C23.29318871 87.2114584 20.50328414 92.11430911 16 96 C15.34 96 14.68 96 14 96 C14.33 94.35 14.66 92.7 15 91 C15.99 90.67 16.98 90.34 18 90 C18.33 89.34 18.66 88.68 19 88 C18.39671875 88.30035156 17.7934375 88.60070312 17.171875 88.91015625 C16.37265625 89.29042969 15.5734375 89.67070312 14.75 90.0625 C13.96109375 90.44535156 13.1721875 90.82820313 12.359375 91.22265625 C9.74006478 92.08564091 8.55144824 91.93045933 6 91 C6.928125 90.5875 7.85625 90.175 8.8125 89.75 C13.02190315 87.43895513 14.49900577 85.50298268 16 81 C16.60297847 73.22058927 17.18564887 65.35402037 12 59 C8.61043663 55.75166844 5.30804157 55.30525779 0.75 54.5625 C-9.56579519 52.67350052 -15.8852163 49.76775864 -22 41 C-26.03660383 34.38684053 -25.87637238 26.49129854 -25 19 C-22.82098405 11.56511688 -18.36586695 6.30669105 -12 2 C-7.87540603 0.10268677 -4.51547803 -0.21502276 0 0 Z " fill="#F2ECEA" transform="translate(596,175)"/>
<path d="M0 0 C2.40076976 2.15967945 3.62605965 4.01666205 4.7890625 7.01953125 C5.09070313 7.79490234 5.39234375 8.57027344 5.703125 9.36914062 C6.00734375 10.17544922 6.3115625 10.98175781 6.625 11.8125 C6.93695313 12.60720703 7.24890625 13.40191406 7.5703125 14.22070312 C9.20146501 18.47083974 10.45766814 22.44880969 11 27 C11.66 27 12.32 27 13 27 C14.17495143 29.93425371 15.33850852 32.87289513 16.5 35.8125 C16.83386719 36.64587891 17.16773438 37.47925781 17.51171875 38.33789062 C17.82753906 39.14033203 18.14335937 39.94277344 18.46875 40.76953125 C18.76201172 41.50792236 19.05527344 42.24631348 19.35742188 43.00708008 C20 45 20 45 20 48 C19.01 47.67 18.02 47.34 17 47 C16.505 44.525 16.505 44.525 16 42 C14.02 42.495 14.02 42.495 12 43 C11.896875 43.639375 11.79375 44.27875 11.6875 44.9375 C11.460625 45.618125 11.23375 46.29875 11 47 C9.515 47.495 9.515 47.495 8 48 C8 49.65 8 51.3 8 53 C3.05 53 -1.9 53 -7 53 C-6 46 -6 46 -4.9375 43.5 C-3.70279194 40.20744517 -3.73692808 37.48570299 -4 34 C-4.66 33.34 -5.32 32.68 -6 32 C-6.1953125 29.6171875 -6.1953125 29.6171875 -6.125 26.875 C-6.10695312 25.96492188 -6.08890625 25.05484375 -6.0703125 24.1171875 C-6.04710937 23.41851562 -6.02390625 22.71984375 -6 22 C-6.66 22 -7.32 22 -8 22 C-7.67 23.65 -7.34 25.3 -7 27 C-7.99 27 -8.98 27 -10 27 C-10 28.98 -10 30.96 -10 33 C-10.99 32.67 -11.98 32.34 -13 32 C-9.53431252 21.02532299 -5.3995141 10.17600734 0 0 Z " fill="#F7F3F2" transform="translate(260,189)"/>
<path d="M0 0 C0.33 0 0.66 0 1 0 C1 28.38 1 56.76 1 86 C23.11 86 45.22 86 68 86 C68 82.04 68 78.08 68 74 C51.5 74 35 74 18 74 C18.33 49.91 18.66 25.82 19 1 C19.99 1 20.98 1 22 1 C22 23.11 22 45.22 22 68 C27.28 68.33 32.56 68.66 38 69 C38 69.66 38 70.32 38 71 C39.14597656 70.91621094 40.29195313 70.83242188 41.47265625 70.74609375 C43.00257846 70.64284747 44.5325279 70.54000433 46.0625 70.4375 C47.19075195 70.35338867 47.19075195 70.35338867 48.34179688 70.26757812 C53.07859502 69.95999383 57.32542212 70.16192827 62 71 C62.495 69.515 62.495 69.515 63 68 C64.98 68 66.96 68 69 68 C70 73 70 73 69 87 C53.655 87.495 53.655 87.495 38 88 C38 88.33 38 88.66 38 89 C40.64 89.33 43.28 89.66 46 90 C46 90.33 46 90.66 46 91 C32.27882304 92.32917512 18.74508544 91.7250697 5 91 C5 91.33 5 91.66 5 92 C2.69 92 0.38 92 -2 92 C-1.83923477 91.18687347 -1.67846954 90.37374695 -1.51283264 89.53598022 C-0.92542103 85.48577813 -0.82470393 81.50709134 -0.79467773 77.42431641 C-0.78477814 76.58463318 -0.77487854 75.74494995 -0.76467896 74.87982178 C-0.73323806 72.12043013 -0.70837578 69.3610213 -0.68359375 66.6015625 C-0.66300917 64.68199226 -0.64201231 62.7624264 -0.62062073 60.84286499 C-0.56555539 55.80250608 -0.51607787 50.76210732 -0.46777344 45.72167969 C-0.41744465 40.57353184 -0.36181809 35.42544151 -0.30664062 30.27734375 C-0.19924922 20.18494503 -0.09776237 10.09249626 0 0 Z " fill="#DE121A" transform="translate(330,188)"/>
<path d="M0 0 C0.33 0 0.66 0 1 0 C1 49.5 1 99 1 150 C-7.91 150 -16.82 150 -26 150 C-26.33 113.37 -26.66 76.74 -27 39 C-26.01 38.505 -26.01 38.505 -25 38 C-25 73.97 -25 109.94 -25 147 C-18.07 147 -11.14 147 -4 147 C-4 99.48 -4 51.96 -4 3 C-4.66 3 -5.32 3 -6 3 C-6 2.34 -6 1.68 -6 1 C-4.35 1 -2.7 1 -1 1 C-1.33 49.18 -1.66 97.36 -2 147 C-1.34 147 -0.68 147 0 147 C0 98.49 0 49.98 0 0 Z " fill="#EBDEDA" transform="translate(190,125)"/>
<path d="M0 0 C0.66 0 1.32 0 2 0 C3.6875 1.6875 3.6875 1.6875 5 4 C4.6875 6.75 4.6875 6.75 4 9 C3.67 8.34 3.34 7.68 3 7 C2.34 7 1.68 7 1 7 C1 6.01 1 5.02 1 4 C0.34 4 -0.32 4 -1 4 C-1 40.3 -1 76.6 -1 114 C-2.98 113.67 -4.96 113.34 -7 113 C-8.35986921 112.87012832 -9.72212388 112.76184535 -11.0859375 112.68359375 C-11.78847656 112.64169922 -12.49101563 112.59980469 -13.21484375 112.55664062 C-13.92769531 112.51732422 -14.64054687 112.47800781 -15.375 112.4375 C-16.11105469 112.39431641 -16.84710938 112.35113281 -17.60546875 112.30664062 C-19.40348068 112.20156201 -21.20171958 112.10037907 -23 112 C-23 111.67 -23 111.34 -23 111 C-17.39 111 -11.78 111 -6 111 C-6 97.8 -6 84.6 -6 71 C-5.34 71 -4.68 71 -4 71 C-4.06058594 70.35675781 -4.12117188 69.71351563 -4.18359375 69.05078125 C-5.36271355 56.33442773 -6.33819666 43.77631839 -6 31 C-4.68 30.67 -3.36 30.34 -2 30 C-2.01047363 29.19780029 -2.02094727 28.39560059 -2.03173828 27.5690918 C-2.07325767 23.94192628 -2.09931343 20.31481072 -2.125 16.6875 C-2.14175781 15.42486328 -2.15851563 14.16222656 -2.17578125 12.86132812 C-2.18222656 11.65283203 -2.18867187 10.44433594 -2.1953125 9.19921875 C-2.20578613 8.08377686 -2.21625977 6.96833496 -2.22705078 5.8190918 C-2 3 -2 3 0 0 Z " fill="#F9FCFB" transform="translate(103,161)"/>
<path d="M0 0 C5.94 0 11.88 0 18 0 C18 28.71 18 57.42 18 87 C16.68 87 15.36 87 14 87 C14 59.61 14 32.22 14 4 C11.03 4 8.06 4 5 4 C5 3.67 5 3.34 5 3 C6.06541016 2.90912109 6.06541016 2.90912109 7.15234375 2.81640625 C8.53099609 2.69072266 8.53099609 2.69072266 9.9375 2.5625 C11.31228516 2.44068359 11.31228516 2.44068359 12.71484375 2.31640625 C14.96159732 2.23955024 14.96159732 2.23955024 16 1 C10.72 1 5.44 1 0 1 C0 0.67 0 0.34 0 0 Z " fill="#EEDFDB" transform="translate(435,187)"/>
<path d="M0 0 C1.65 0 3.3 0 5 0 C5.33 0.66 5.66 1.32 6 2 C8.02463255 2.65213292 8.02463255 2.65213292 10 3 C10.33 4.65 10.66 6.3 11 8 C11.804375 7.979375 12.60875 7.95875 13.4375 7.9375 C16 8 16 8 17 9 C17.39993686 11.68862664 17.75134543 14.36352217 18.0625 17.0625 C18.15337891 17.82111328 18.24425781 18.57972656 18.33789062 19.36132812 C18.5624374 21.2404301 18.78170978 23.12016095 19 25 C19.598125 24.79375 20.19625 24.5875 20.8125 24.375 C23 24 23 24 26 26 C26.2208564 28.95064148 26.28060989 31.68368231 26.1875 34.625 C26.16719727 35.82769531 26.16719727 35.82769531 26.14648438 37.0546875 C26.11109051 39.03674378 26.05728234 41.01845551 26 43 C25.01 43.495 25.01 43.495 24 44 C24 42.68 24 41.36 24 40 C23.01 40 22.02 40 21 40 C20.34 37.36 19.68 34.72 19 32 C18.34 32 17.68 32 17 32 C16.7733667 31.35450195 16.5467334 30.70900391 16.31323242 30.04394531 C15.27855234 27.11002197 14.23315415 24.18002915 13.1875 21.25 C12.65286133 19.72632813 12.65286133 19.72632813 12.10742188 18.171875 C11.75615234 17.1921875 11.40488281 16.2125 11.04296875 15.203125 C10.56380005 13.85202637 10.56380005 13.85202637 10.07495117 12.47363281 C8.9928058 9.98344501 7.7152745 8.09336116 6 6 C5.67386719 6.79664063 5.34773438 7.59328125 5.01171875 8.4140625 C2.83151782 13.70056742 0.67011492 18.94083489 -2 24 C-3.32 23.67 -4.64 23.34 -6 23 C-6 20.03 -6 17.06 -6 14 C-5.01 14.33 -4.02 14.66 -3 15 C-2.896875 13.88625 -2.79375 12.7725 -2.6875 11.625 C-2.460625 10.42875 -2.23375 9.2325 -2 8 C-1.01 7.34 -0.02 6.68 1 6 C1.72382467 3.94074861 1.72382467 3.94074861 2 2 C1.34 2 0.68 2 0 2 C0 1.34 0 0.68 0 0 Z " fill="#D21E26" transform="translate(254,184)"/>
<path d="M0 0 C0.33 0 0.66 0 1 0 C1 28.38 1 56.76 1 86 C23.11 86 45.22 86 68 86 C68 82.04 68 78.08 68 74 C51.5 74 35 74 18 74 C18 73.67 18 73.34 18 73 C34.83 73 51.66 73 69 73 C69 77.62 69 82.24 69 87 C53.655 87.495 53.655 87.495 38 88 C38 88.33 38 88.66 38 89 C40.64 89.33 43.28 89.66 46 90 C46 90.33 46 90.66 46 91 C32.27882304 92.32917512 18.74508544 91.7250697 5 91 C5 91.33 5 91.66 5 92 C2.69 92 0.38 92 -2 92 C-1.83923477 91.18687347 -1.67846954 90.37374695 -1.51283264 89.53598022 C-0.92542103 85.48577813 -0.82470393 81.50709134 -0.79467773 77.42431641 C-0.78477814 76.58463318 -0.77487854 75.74494995 -0.76467896 74.87982178 C-0.73323806 72.12043013 -0.70837578 69.3610213 -0.68359375 66.6015625 C-0.66300917 64.68199226 -0.64201231 62.7624264 -0.62062073 60.84286499 C-0.56555539 55.80250608 -0.51607787 50.76210732 -0.46777344 45.72167969 C-0.41744465 40.57353184 -0.36181809 35.42544151 -0.30664062 30.27734375 C-0.19924922 20.18494503 -0.09776237 10.09249626 0 0 Z " fill="#DD6766" transform="translate(330,188)"/>
<path d="M0 0 C0.33 0 0.66 0 1 0 C1.80072307 29.86313712 2.29472877 59.67226798 1.7751236 89.54450989 C1.738185 91.66960006 1.70178782 93.794699 1.66546631 95.9197998 C1.55473662 102.35768532 1.44072627 108.79542139 1.30958652 115.23292732 C1.26858529 117.2836183 1.23024084 119.33434036 1.19291687 121.38510132 C1.14645721 123.92053317 1.09550081 126.45588833 1.03913879 128.99111938 C0.92800218 135.38277034 1.12280006 141.538777 1.9723053 147.87991333 C1.98601418 148.92935623 1.98601418 148.92935623 2 150 C0 152 0 152 -2.61376953 152.22705078 C-3.69255371 152.21657715 -4.77133789 152.20610352 -5.8828125 152.1953125 C-7.04941406 152.18886719 -8.21601563 152.18242187 -9.41796875 152.17578125 C-10.64128906 152.15902344 -11.86460937 152.14226562 -13.125 152.125 C-14.35605469 152.11597656 -15.58710938 152.10695313 -16.85546875 152.09765625 C-19.90383815 152.07402548 -22.95182382 152.04108054 -26 152 C-26 151.67 -26 151.34 -26 151 C-17.75 151 -9.5 151 -1 151 C-1.00222061 149.15250656 -1.00444122 147.30501312 -1.00672913 145.40153503 C-1.02696766 128.02270066 -1.04203559 110.64386866 -1.05181217 93.26502514 C-1.05697228 84.32959203 -1.06400956 75.39416771 -1.07543945 66.45874023 C-1.08539498 58.67220771 -1.09185551 50.88568156 -1.09408849 43.09914285 C-1.09539412 38.97481614 -1.09847065 34.85050764 -1.10573006 30.72618675 C-1.11250395 26.84636326 -1.11461415 22.96656552 -1.11310768 19.08673668 C-1.11338339 17.66088216 -1.11538041 16.23502681 -1.11920547 14.8091774 C-1.12416399 12.86592986 -1.12239257 10.92266858 -1.12025452 8.97941589 C-1.12117631 7.89077838 -1.1220981 6.80214087 -1.12304783 5.68051434 C-1 3 -1 3 0 0 Z " fill="#C10E19" transform="translate(192,125)"/>
<path d="M0 0 C0.33 0 0.66 0 1 0 C1.125 7.75 1.125 7.75 0 10 C0.33 10.763125 0.66 11.52625 1 12.3125 C2.14309247 15.38456102 1.88573949 16.89991179 1 20 C1.33 20 1.66 20 2 20 C2 21.65 2 23.3 2 25 C2.66 25 3.32 25 4 25 C4.33 23.68 4.66 22.36 5 21 C5.66 21 6.32 21 7 21 C6.42547254 17.06924356 6.42547254 17.06924356 4 14 C6.97 14.495 6.97 14.495 10 15 C9.01 18.63 8.02 22.26 7 26 C6.34 26 5.68 26 5 26 C4.855625 26.969375 4.71125 27.93875 4.5625 28.9375 C4 32 4 32 3 33 C0.30345146 33.07319621 -2.36691458 33.09242537 -5.0625 33.0625 C-6.20041992 33.05573242 -6.20041992 33.05573242 -7.36132812 33.04882812 C-9.24091871 33.0370068 -11.12046899 33.01907078 -13 33 C-12.34578824 28.866921 -10.99650394 25.38576355 -9.3125 21.5625 C-8.77459136 20.33209604 -8.23683578 19.10162516 -7.69921875 17.87109375 C-7.42126465 17.23929199 -7.14331055 16.60749023 -6.85693359 15.95654297 C-5.42548914 12.68828203 -4.0268149 9.40605032 -2.625 6.125 C-1.75 4.08333333 -0.875 2.04166667 0 0 Z " fill="#F6F1F0" transform="translate(238,242)"/>
<path d="M0 0 C0.66 0 1.32 0 2 0 C2.33 2.31 2.66 4.62 3 7 C3.33 7 3.66 7 4 7 C6.16456483 15.92882991 4.05961557 22.5952729 1 31 C0.505 32.485 0.505 32.485 0 34 C-0.99 33.67 -1.98 33.34 -3 33 C-2.67 32.01 -2.34 31.02 -2 30 C-2.61875 29.87625 -3.2375 29.7525 -3.875 29.625 C-6 29 -6 29 -8 27 C-8.66 27 -9.32 27 -10 27 C-10.66 28.32 -11.32 29.64 -12 31 C-13.05830736 27.81889675 -12.99308846 26.19645871 -11.63671875 23.14453125 C-11.32669922 22.44005859 -11.01667969 21.73558594 -10.69726562 21.00976562 C-10.36404297 20.28466797 -10.03082031 19.55957031 -9.6875 18.8125 C-9.36587891 18.07580078 -9.04425781 17.33910156 -8.71289062 16.58007812 C-6.27434981 11.1371749 -6.27434981 11.1371749 -4 10 C-3.34 10.33 -2.68 10.66 -2 11 C-2.185625 10.38125 -2.37125 9.7625 -2.5625 9.125 C-3 7 -3 7 -2 5 C-1.01 5 -0.02 5 1 5 C1 4.34 1 3.68 1 3 C0.34 2.67 -0.32 2.34 -1 2 C-0.67 1.34 -0.34 0.68 0 0 Z " fill="#FAFBFB" transform="translate(252,211)"/>
<path d="M0 0 C0.33 0 0.66 0 1 0 C1 2.31 1 4.62 1 7 C1.66 7.33 2.32 7.66 3 8 C3.33 7.34 3.66 6.68 4 6 C12 21.43083004 12 21.43083004 12 27 C6.72 27 1.44 27 -4 27 C-5.5285465 22.41436051 -6.5445964 18.73619744 -7 14 C-6.67 13.34 -6.34 12.68 -6 12 C-5.34 12 -4.68 12 -4 12 C-4.33 11.01 -4.66 10.02 -5 9 C-4.34 8.67 -3.68 8.34 -3 8 C-2.09656316 6.11736119 -2.09656316 6.11736119 -1.375 3.9375 C-0.98441406 2.83728516 -0.98441406 2.83728516 -0.5859375 1.71484375 C-0.39257812 1.14894531 -0.19921875 0.58304688 0 0 Z " fill="#FBFBFA" transform="translate(283,248)"/>
<path d="M0 0 C3.59177443 5.38766165 2.66878779 13.14978242 1.58203125 19.40625 C0.6010409 22.88765937 -0.43900417 25.43900417 -3 28 C-2.01 29.65 -1.02 31.3 0 33 C-1.32 33.33 -2.64 33.66 -4 34 C-4.33 36.31 -4.66 38.62 -5 41 C-6.65 41 -8.3 41 -10 41 C-10 40.34 -10 39.68 -10 39 C-15.81957493 37.77413751 -21.60268425 37.77670429 -27.5234375 37.68359375 C-28.62475006 37.66281265 -29.72606262 37.64203156 -30.86074829 37.62062073 C-34.36543773 37.5554381 -37.87019966 37.49638603 -41.375 37.4375 C-43.7565178 37.39428502 -46.13802837 37.35066978 -48.51953125 37.30664062 C-54.3462784 37.19978888 -60.17309703 37.09796533 -66 37 C-66.12761719 36.195625 -66.25523437 35.39125 -66.38671875 34.5625 C-66.58910156 33.716875 -66.79148437 32.87125 -67 32 C-68.84971696 30.94978897 -68.84971696 30.94978897 -71 30 C-72.33827304 28.33729713 -73.67189785 26.67083819 -75 25 C-75.99 24.67 -76.98 24.34 -78 24 C-80.6875 21.5625 -80.6875 21.5625 -83 19 C-83 18.34 -83 17.68 -83 17 C-83.99 17 -84.98 17 -86 17 C-87.37482707 15.36739286 -88.70647667 13.69774938 -90 12 C-90.99 11.34 -91.98 10.68 -93 10 C-92.67 9.34 -92.34 8.68 -92 8 C-91.25234375 8.61488281 -90.5046875 9.22976562 -89.734375 9.86328125 C-88.74953125 10.67152344 -87.7646875 11.47976562 -86.75 12.3125 C-85.77546875 13.11300781 -84.8009375 13.91351563 -83.796875 14.73828125 C-82.1165372 16.0971019 -80.40520293 17.42049395 -78.640625 18.66796875 C-78.09921875 19.10753906 -77.5578125 19.54710937 -77 20 C-77 20.66 -77 21.32 -77 22 C-76.44989258 22.21543457 -75.89978516 22.43086914 -75.33300781 22.65283203 C-72.80842403 24.1106233 -71.16614027 25.92248693 -69.18487549 28.0317688 C-62.22843388 35.03381215 -55.96382601 36.26293719 -46.27600098 36.34515381 C-44.27954117 36.32062094 -42.28323242 36.27676958 -40.28759766 36.21435547 C-37.2391315 36.12468029 -34.20186488 36.1322521 -31.15234375 36.15234375 C-19.59080134 36.32560328 -19.59080134 36.32560328 -9.296875 31.7578125 C-6.62619135 29.05182433 -4.50324012 26.2649291 -3 22.75 C-2.443125 21.50476563 -2.443125 21.50476563 -1.875 20.234375 C-0.13217897 15.78395701 0.11981566 12.03442836 0.0625 7.3125 C0.05798828 6.61060547 0.05347656 5.90871094 0.04882812 5.18554688 C0.03706927 3.45699462 0.01913454 1.72848635 0 0 Z " fill="#AC2231" transform="translate(621,239)"/>
<path d="M0 0 C0.99 0 1.98 0 3 0 C3 0.66 3 1.32 3 2 C3.66 2 4.32 2 5 2 C5 1.34 5 0.68 5 0 C5.99 0 6.98 0 8 0 C8 4.95 8 9.9 8 15 C9.65 15.33 11.3 15.66 13 16 C13 16.66 13 17.32 13 18 C13.99 18 14.98 18 16 18 C16 22.66666667 16 27.33333333 16 32 C16.29435951 34.3310091 16.6291709 36.65289866 16.9765625 38.9765625 C16.98429687 39.64429688 16.99203125 40.31203125 17 41 C16.34 41.66 15.68 42.32 15 43 C14.54109375 41.81664062 14.0821875 40.63328125 13.609375 39.4140625 C9.6718609 29.26036166 9.6718609 29.26036166 5.6875 19.125 C5.40261719 18.40570313 5.11773437 17.68640625 4.82421875 16.9453125 C4.02797396 14.97731841 4.02797396 14.97731841 2.96484375 13.1015625 C1.77528117 10.51053146 1.34311634 8.05869802 0.875 5.25 C0.70742188 4.26515625 0.53984375 3.2803125 0.3671875 2.265625 C0.24601562 1.51796875 0.12484375 0.7703125 0 0 Z " fill="#D11C27" transform="translate(280,232)"/>
<path d="M0 0 C7.26 0 14.52 0 22 0 C26 10 26 10 26 13 C26.66 13 27.32 13 28 13 C28 15.31 28 17.62 28 20 C33.61 20 39.22 20 45 20 C44.67 21.32 44.34 22.64 44 24 C37.07 24 30.14 24 23 24 C23.66 23.67 24.32 23.34 25 23 C25 22.34 25 21.68 25 21 C24.01 21.33 23.02 21.66 22 22 C22 17.38 22 12.76 22 8 C19.36 7.67 16.72 7.34 14 7 C14 5.02 14 3.04 14 1 C9.38 1 4.76 1 0 1 C0 0.67 0 0.34 0 0 Z " fill="#D4121F" transform="translate(250,256)"/>
<path d="M0 0 C9.57 0 19.14 0 29 0 C27.19613762 3.60772477 25.7942051 5.47634052 23 8.25 C21.948125 9.30960938 21.948125 9.30960938 20.875 10.390625 C19 12 19 12 17 12 C16.67 12.99 16.34 13.98 16 15 C14.5390625 16.4375 14.5390625 16.4375 12.625 18 C8.38036035 21.57564753 4.517989 25.44004549 0.68212891 29.44335938 C-0.50925405 30.66507155 -1.75102286 31.83723172 -3 33 C-3.66 33 -4.32 33 -5 33 C-5.33 33.66 -5.66 34.32 -6 35 C-6.33 33.68 -6.66 32.36 -7 31 C-5.68 31 -4.36 31 -3 31 C-1.71598468 28.68877243 -1.00329007 27.02763657 -0.6875 24.375 C-0.460625 23.59125 -0.23375 22.8075 0 22 C2.5 20.875 2.5 20.875 5 20 C5.33 19.01 5.66 18.02 6 17 C6.66 17.33 7.32 17.66 8 18 C8.33 17.01 8.66 16.02 9 15 C9.99 15 10.98 15 12 15 C12.33 14.01 12.66 13.02 13 12 C13.66 11.34 14.32 10.68 15 10 C14.34 9.67 13.68 9.34 13 9 C13.875 4.125 13.875 4.125 15 3 C17.67058851 2.85884839 20.32432238 2.95752893 23 3 C23.33 2.34 23.66 1.68 24 1 C16.08 1 8.16 1 0 1 C0 0.67 0 0.34 0 0 Z " fill="#F5F5F4" transform="translate(563,125)"/>
<path d="M0 0 C23.1 0 46.2 0 70 0 C69.67 1.65 69.34 3.3 69 5 C64.05 5 59.1 5 54 5 C54 4.34 54 3.68 54 3 C40.8 3 27.6 3 14 3 C14 2.67 14 2.34 14 2 C7.07 1.505 7.07 1.505 0 1 C0 0.67 0 0.34 0 0 Z " fill="#CE1218" transform="translate(330,275)"/>
<path d="M0 0 C0.66 0 1.32 0 2 0 C3.1721449 2.95619219 4.33677476 5.91528789 5.5 8.875 C5.83386719 9.71675781 6.16773438 10.55851563 6.51171875 11.42578125 C6.98544922 12.63427734 6.98544922 12.63427734 7.46875 13.8671875 C7.76201172 14.61081543 8.05527344 15.35444336 8.35742188 16.12060547 C9 18 9 18 9 20 C4.05 20 -0.9 20 -6 20 C-5.22681812 14.58772685 -4.41479485 10.9803872 -2.4375 6.0625 C-1.98246094 4.91910156 -1.52742188 3.77570313 -1.05859375 2.59765625 C-0.70925781 1.74042969 -0.35992187 0.88320312 0 0 Z " fill="#CD1723" transform="translate(259,222)"/>
<path d="M0 0 C0.66 0 1.32 0 2 0 C2 49.83 2 99.66 2 151 C1.01 150.67 0.02 150.34 -1 150 C-0.34 150 0.32 150 1 150 C0.89257162 132.17970266 0.77977703 114.35944765 0.66066074 96.53922462 C0.60547228 88.26428207 0.5520146 79.9893352 0.50268555 71.71435547 C0.45966685 64.49868913 0.41334558 57.28305268 0.36312145 50.06743276 C0.33666219 46.24974432 0.31181404 42.43206125 0.29092598 38.61433792 C0.2711769 35.01434826 0.24698193 31.41441475 0.21950912 27.81447601 C0.20584237 25.87695738 0.19677101 23.93940801 0.18788147 22.00186157 C0.13707807 15.90419911 -0.09107222 9.94694193 -0.88612461 3.89754295 C-1 2 -1 2 0 0 Z " fill="#AF0B19" transform="translate(73,124)"/>
<path d="M0 0 C1.65 0 3.3 0 5 0 C6.6498007 3.29960141 6.38258361 6.99127884 6.5625 10.625 C6.60568359 11.42679688 6.64886719 12.22859375 6.69335938 13.0546875 C6.79951457 15.0362511 6.90026855 17.01810271 7 19 C6.34 19 5.68 19 5 19 C4.01 21.475 4.01 21.475 3 24 C2.34 24 1.68 24 1 24 C-1.66311898 20.05268926 -1.26078811 16.00836364 -1.1875 11.4375 C-1.18685547 10.66986328 -1.18621094 9.90222656 -1.18554688 9.11132812 C-1.15979358 5.82921319 -1.04420321 3.13260963 0 0 Z " fill="#F9FBFB" transform="translate(573,192)"/>
<path d="M0 0 C2.64 0.33 5.28 0.66 8 1 C7.67 3.97 7.34 6.94 7 10 C10.79788698 11.12126781 10.79788698 11.12126781 14 11 C14.33 10.34 14.66 9.68 15 9 C15.99 9 16.98 9 18 9 C17.979375 8.236875 17.95875 7.47375 17.9375 6.6875 C18 4 18 4 19 1 C20.65 1 22.3 1 24 1 C24.33 1.66 24.66 2.32 25 3 C21.96602311 9.06795378 17.94283361 14.49553847 14 20 C10.03458338 18.67819446 9.0116716 16.24217319 7 12.8125 C6.319375 11.68457031 5.63875 10.55664062 4.9375 9.39453125 C3.17612951 6.30858174 1.55170599 3.19554452 0 0 Z " fill="#F2F0EE" transform="translate(120,191)"/>
<path d="M0 0 C0.33 0 0.66 0 1 0 C1 2.97 1 5.94 1 9 C3.31 9.33 5.62 9.66 8 10 C7.85851011 11.6045556 7.71164314 13.20863767 7.5625 14.8125 C7.48128906 15.70582031 7.40007812 16.59914062 7.31640625 17.51953125 C7 20 7 20 6 23 C5.01 22.67 4.02 22.34 3 22 C3.33 21.01 3.66 20.02 4 19 C3.38125 18.87625 2.7625 18.7525 2.125 18.625 C0 18 0 18 -2 16 C-2.66 16 -3.32 16 -4 16 C-4.66 17.32 -5.32 18.64 -6 20 C-7.07980476 16.78249481 -6.97733906 15.17877268 -5.56640625 12.109375 C-5.24736328 11.40039062 -4.92832031 10.69140625 -4.59960938 9.9609375 C-4.25736328 9.23132813 -3.91511719 8.50171875 -3.5625 7.75 C-3.22412109 7.00492188 -2.88574219 6.25984375 -2.53710938 5.4921875 C-1.70173696 3.65672135 -0.85222033 1.82770445 0 0 Z " fill="#F3F6F6" transform="translate(246,222)"/>
<path d="M0 0 C0.66 0 1.32 0 2 0 C3.6875 1.6875 3.6875 1.6875 5 4 C4.6875 6.75 4.6875 6.75 4 9 C3.67 8.34 3.34 7.68 3 7 C2.34 7 1.68 7 1 7 C1 6.01 1 5.02 1 4 C0.34 4 -0.32 4 -1 4 C-1 40.3 -1 76.6 -1 114 C-1.33 114 -1.66 114 -2 114 C-2.04669944 99.57922545 -2.08184583 85.1584626 -2.10362434 70.73762798 C-2.11407529 64.04193602 -2.12801003 57.34629636 -2.15087891 50.65063477 C-2.17256049 44.19269625 -2.18455874 37.73480658 -2.18975449 31.27683449 C-2.19345867 28.80919437 -2.2006917 26.34155701 -2.21146011 23.87393761 C-2.22591268 20.42590873 -2.22798055 16.97808344 -2.22705078 13.5300293 C-2.23424133 12.50288315 -2.24143188 11.475737 -2.24884033 10.41746521 C-2.246091 9.47937012 -2.24334167 8.54127502 -2.24050903 7.57475281 C-2.24235262 6.75896602 -2.24419621 5.94317923 -2.24609566 5.10267162 C-2 3 -2 3 0 0 Z " fill="#F5DCDD" transform="translate(103,161)"/>
<path d="M0 0 C0 2.97 0 5.94 0 9 C-2.97 9 -5.94 9 -9 9 C-9 9.66 -9 10.32 -9 11 C-9.99 11 -10.98 11 -12 11 C-12 11.66 -12 12.32 -12 13 C-13.32 13 -14.64 13 -16 13 C-16.33 12.01 -16.66 11.02 -17 10 C-16.21625 9.2575 -15.4325 8.515 -14.625 7.75 C-11.98421374 5.27296901 -11.98421374 5.27296901 -10.9375 2.75 C-10 1 -10 1 -8.25 0.25 C-5.48552496 -0.05716389 -2.77898594 -0.06315877 0 0 Z " fill="#FCFCFC" transform="translate(596,175)"/>
<path d="M0 0 C-0.33 0.66 -0.66 1.32 -1 2 C0.98 2 2.96 2 5 2 C4.01 3.485 4.01 3.485 3 5 C3.33 5.66 3.66 6.32 4 7 C3.83219837 9.69565202 3.38844355 12.32405554 3 15 C3.66 15.33 4.32 15.66 5 16 C5 16.66 5 17.32 5 18 C4.01 18 3.02 18 2 18 C2.99 19.32 3.98 20.64 5 22 C4.071875 21.814375 3.14375 21.62875 2.1875 21.4375 C-1.01343771 20.75876119 -1.01343771 20.75876119 -4 22 C-4 21.34 -4 20.68 -4 20 C-5.65 20 -7.3 20 -9 20 C-9 20.66 -9 21.32 -9 22 C-9.99 21.67 -10.98 21.34 -12 21 C-7.88881081 17.47612355 -4.53491888 15 1 15 C1 11.7 1 8.4 1 5 C-1.9982175 4.25044562 -4.96936513 3.58929011 -8 3 C-6 0 -6 0 -4 -0.75 C-2 -1 -2 -1 0 0 Z " fill="#AE2027" transform="translate(595,169)"/>
<path d="M0 0 C1.32 0.33 2.64 0.66 4 1 C3.01 1.495 3.01 1.495 2 2 C2.99 3.485 2.99 3.485 4 5 C4.22705078 6.90112305 4.22705078 6.90112305 4.1953125 9.01171875 C4.18886719 9.76904297 4.18242188 10.52636719 4.17578125 11.30664062 C4.15902344 12.09232422 4.14226563 12.87800781 4.125 13.6875 C4.11597656 14.48478516 4.10695313 15.28207031 4.09765625 16.10351562 C4.07411585 18.069139 4.03824547 20.03460775 4 22 C3.67 22 3.34 22 3 22 C3 16.72 3 11.44 3 6 C2.34 6 1.68 6 1 6 C1 16.56 1 27.12 1 38 C1.99 38 2.98 38 4 38 C4 35.36 4 32.72 4 30 C5.32 30 6.64 30 8 30 C8.125 37.75 8.125 37.75 7 40 C3.535 40.495 3.535 40.495 0 41 C0 27.47 0 13.94 0 0 Z " fill="#C31D2B" transform="translate(512,234)"/>
<path d="M0 0 C0.99 0.66 1.98 1.32 3 2 C3.43237305 4.33837891 3.43237305 4.33837891 3.51171875 7.2265625 C3.54716797 8.2578125 3.58261719 9.2890625 3.61914062 10.3515625 C3.64169922 11.43179688 3.66425781 12.51203125 3.6875 13.625 C3.73874023 15.25695312 3.73874023 15.25695312 3.79101562 16.921875 C3.87368334 19.61448063 3.94277087 22.30675291 4 25 C4.66 25 5.32 25 6 25 C6 24.34 6 23.68 6 23 C6.66 23 7.32 23 8 23 C7.74282219 28.27214518 5.82766483 30.87129938 2.47265625 34.6796875 C1 36 1 36 -1 36 C-0.67 34.35 -0.34 32.7 0 31 C0.99 30.67 1.98 30.34 3 30 C3.33 29.34 3.66 28.68 4 28 C3.39671875 28.30035156 2.7934375 28.60070312 2.171875 28.91015625 C1.37265625 29.29042969 0.5734375 29.67070312 -0.25 30.0625 C-1.03890625 30.44535156 -1.8278125 30.82820313 -2.640625 31.22265625 C-5.25993522 32.08564091 -6.44855176 31.93045933 -9 31 C-8.071875 30.5875 -7.14375 30.175 -6.1875 29.75 C-1.97809685 27.43895513 -0.50099423 25.50298268 1 21 C1.12117236 18.73154071 1.17540383 16.45916106 1.1875 14.1875 C1.20167969 12.98480469 1.21585938 11.78210938 1.23046875 10.54296875 C1.00124672 7.01916575 0.27030979 4.27870472 -1 1 C-0.67 0.67 -0.34 0.34 0 0 Z " fill="#ECE5E4" transform="translate(611,235)"/>
<path d="M0 0 C0.66 0.66 1.32 1.32 2 2 C1.01 2.495 1.01 2.495 0 3 C-0.66 2.67 -1.32 2.34 -2 2 C-1.19269273 4.17517521 -1.19269273 4.17517521 0.9375 4.75 C1.618125 4.8325 2.29875 4.915 3 5 C3.66 4.34 4.32 3.68 5 3 C5.99 3 6.98 3 8 3 C7.34 4.32 6.68 5.64 6 7 C7.32 7.99 8.64 8.98 10 10 C9.34 10 8.68 10 8 10 C8 10.66 8 11.32 8 12 C6.07050302 11.04794557 4.15770544 10.0885301 2.28125 9.03515625 C-3.52851939 5.86271639 -9.56455658 4.41579755 -16 3 C-15.01 2.67 -14.02 2.34 -13 2 C-13 1.34 -13 0.68 -13 0 C-4.16544503 -1.34764398 -4.16544503 -1.34764398 0 0 Z " fill="#AB1C25" transform="translate(608,217)"/>
<path d="M0 0 C7.26 0 14.52 0 22 0 C26.5 11.25 26.5 11.25 25 18 C21.99382731 14.99382731 22.40414684 12.17618402 22 8 C19.36 7.67 16.72 7.34 14 7 C14 5.02 14 3.04 14 1 C9.38 1 4.76 1 0 1 C0 0.67 0 0.34 0 0 Z " fill="#CC141B" transform="translate(250,256)"/>
<path d="M0 0 C0.99 0.33 1.98 0.66 3 1 C-11.59681093 15.96583144 -11.59681093 15.96583144 -19 21 C-19.33 19.35 -19.66 17.7 -20 16 C-19.34 15.67 -18.68 15.34 -18 15 C-17.34786708 12.97536745 -17.34786708 12.97536745 -17 11 C-16.34 11 -15.68 11 -15 11 C-14.67 10.34 -14.34 9.68 -14 9 C-13.401875 8.87625 -12.80375 8.7525 -12.1875 8.625 C-9.81758569 8.14483953 -9.81758569 8.14483953 -8.0625 6 C-5.69145739 3.70080717 -4.22768018 3.35863113 -1 3 C-0.67 2.01 -0.34 1.02 0 0 Z " fill="#F5F2F1" transform="translate(554,160)"/>
<path d="M0 0 C-0.33 0.99 -0.66 1.98 -1 3 C-1.99 3 -2.98 3 -4 3 C-4.226875 4.11375 -4.45375 5.2275 -4.6875 6.375 C-6 10 -6 10 -8.625 11.4375 C-9.40875 11.623125 -10.1925 11.80875 -11 12 C-11.33 11.525625 -11.66 11.05125 -12 10.5625 C-15.09813267 8.14208385 -18.12026792 8.31801083 -22 8 C-21.01 7.67 -20.02 7.34 -19 7 C-19 6.34 -19 5.68 -19 5 C-18.10796875 4.80664062 -17.2159375 4.61328125 -16.296875 4.4140625 C-15.12640625 4.15367187 -13.9559375 3.89328125 -12.75 3.625 C-11.58984375 3.36976563 -10.4296875 3.11453125 -9.234375 2.8515625 C-6.08736839 2.02300279 -3.20290958 0 0 0 Z " fill="#F1FBFA" transform="translate(615,263)"/>
<path d="M0 0 C-0.33 0.66 -0.66 1.32 -1 2 C-0.34 1.34 0.32 0.68 1 0 C3.4375 -0.125 3.4375 -0.125 6 0 C6.99 0 7.98 0 9 0 C8.67 0.66 8.34 1.32 8 2 C7.34 2 6.68 2 6 2 C6 2.66 6 3.32 6 4 C-4.56 4 -15.12 4 -26 4 C-26 3.67 -26 3.34 -26 3 C-22.535 2.505 -22.535 2.505 -19 2 C-19.33 1.34 -19.66 0.68 -20 0 C-17.04196565 -0.19421438 -14.08379837 -0.38066186 -11.125 -0.5625 C-10.28324219 -0.61857422 -9.44148437 -0.67464844 -8.57421875 -0.73242188 C-7.76855469 -0.78076172 -6.96289062 -0.82910156 -6.1328125 -0.87890625 C-5.38918457 -0.9260376 -4.64555664 -0.97316895 -3.87939453 -1.02172852 C-2 -1 -2 -1 0 0 Z " fill="#AA0B1A" transform="translate(587,121)"/>
<path d="M0 0 C0.66 0.66 1.32 1.32 2 2 C1.625 4.4375 1.625 4.4375 1 7 C1 7.99 1 8.98 1 10 C-0.65 9.67 -2.3 9.34 -4 9 C-5.22637602 13.73030752 -6.14034877 18.08779315 -6 23 C-6.99 22.67 -7.98 22.34 -9 22 C-9.33 22.66 -9.66 23.32 -10 24 C-10.99 24.33 -11.98 24.66 -13 25 C-13.33 25.99 -13.66 26.98 -14 28 C-14.66 28 -15.32 28 -16 28 C-14.71543674 24.58052879 -13.23064027 21.54331068 -11.3125 18.4375 C-8.26875556 13.45955343 -5.33421946 8.42464078 -2.41796875 3.37109375 C-1 1 -1 1 0 0 Z " fill="#EDDFDC" transform="translate(158,126)"/>
<path d="M0 0 C0.99 0 1.98 0 3 0 C3 14.85 3 29.7 3 45 C1 43 1 43 0.77294922 39.10107422 C0.77326659 37.41891207 0.78460604 35.73672981 0.8046875 34.0546875 C0.8075174 33.1696756 0.81034729 32.2846637 0.81326294 31.37283325 C0.8244776 28.54008588 0.8495843 25.70765216 0.875 22.875 C0.88502815 20.95703581 0.89415428 19.03906667 0.90234375 17.12109375 C0.92442111 12.41394124 0.95895955 7.70702384 1 3 C0.34 2.67 -0.32 2.34 -1 2 C-0.67 1.34 -0.34 0.68 0 0 Z " fill="#F1ECE7" transform="translate(508,125)"/>
<path d="M0 0 C0.33 0.99 0.66 1.98 1 3 C1.66 3 2.32 3 3 3 C4.7265625 5.51953125 4.7265625 5.51953125 6.625 8.8125 C7.25664063 9.89144531 7.88828125 10.97039062 8.5390625 12.08203125 C10 15 10 15 10 18 C8.68 18 7.36 18 6 18 C4.65835921 18.2981424 3.32148827 18.62243192 2 19 C0.3501993 15.70039859 0.61741639 12.00872116 0.4375 8.375 C0.39431641 7.57320312 0.35113281 6.77140625 0.30664062 5.9453125 C0.20048543 3.9637489 0.09973145 1.98189729 0 0 Z " fill="#BA1822" transform="translate(103,165)"/>
<path d="M0 0 C0.556875 0.70125 1.11375 1.4025 1.6875 2.125 C4.09124732 5.11344261 6.53810432 8.05940238 9 11 C7.1875 11.625 7.1875 11.625 5 12 C4.01 11.34 3.02 10.68 2 10 C2 10.66 2 11.32 2 12 C1.67 13.32 1.34 14.64 1 16 C-0.98 13.69 -2.96 11.38 -5 9 C-4.01 7.02 -3.02 5.04 -2 3 C-1.34 3 -0.68 3 0 3 C0 2.01 0 1.02 0 0 Z " fill="#EEE7E3" transform="translate(580,208)"/>
<path d="M0 0 C3.63186394 2.04412873 6.62354904 4.30554088 9.6875 7.125 C12.62192394 9.88572044 12.62192394 9.88572044 16 12 C16 12.66 16 13.32 16 14 C16.52464844 14.2165625 17.04929687 14.433125 17.58984375 14.65625 C20.946899 16.52793072 23.67171391 18.98316262 26.5625 21.5 C31.12421641 25.44897412 31.12421641 25.44897412 36 29 C33.03 29 30.06 29 27 29 C26.9175 28.21625 26.835 27.4325 26.75 26.625 C26.5025 25.75875 26.255 24.8925 26 24 C24.15028304 22.94978897 24.15028304 22.94978897 22 22 C20.66172696 20.33729713 19.32810215 18.67083819 18 17 C17.01 16.67 16.02 16.34 15 16 C12.3125 13.5625 12.3125 13.5625 10 11 C10 10.34 10 9.68 10 9 C9.01 9 8.02 9 7 9 C5.62517293 7.36739286 4.29352333 5.69774938 3 4 C2.01 3.34 1.02 2.68 0 2 C0 1.34 0 0.68 0 0 Z " fill="#A31D22" transform="translate(528,247)"/>
<path d="M0 0 C0.66 0 1.32 0 2 0 C2.79585256 10.687163 3.12825004 21.28399677 3 32 C2.01 32 1.02 32 0 32 C0 21.44 0 10.88 0 0 Z " fill="#C5121C" transform="translate(513,240)"/>
<path d="M0 0 C0.99 0 1.98 0 3 0 C3 0.66 3 1.32 3 2 C3.66 2 4.32 2 5 2 C5 1.34 5 0.68 5 0 C5.99 0 6.98 0 8 0 C8 4.62 8 9.24 8 14 C3 12 3 12 2 11 C1.60545777 9.15400312 1.25823134 7.29774178 0.9375 5.4375 C0.76089844 4.42558594 0.58429688 3.41367188 0.40234375 2.37109375 C0.26957031 1.58863281 0.13679688 0.80617187 0 0 Z " fill="#D81923" transform="translate(280,232)"/>
<path d="M0 0 C4.95 0.33 9.9 0.66 15 1 C15 2.32 15 3.64 15 5 C12.36 5 9.72 5 7 5 C6.67 5.99 6.34 6.98 6 8 C4.35 7.67 2.7 7.34 1 7 C0.67 4.69 0.34 2.38 0 0 Z " fill="#D21A24" transform="translate(249,256)"/>
<path d="M0 0 C2.97 0.495 2.97 0.495 6 1 C6.62645012 9.14385151 6.62645012 9.14385151 4.125 12.5625 C2 14 2 14 0 14 C-1.33224462 10.00326615 -1.13442113 6.16705497 -1 2 C-0.67 1.34 -0.34 0.68 0 0 Z " fill="#D31D27" transform="translate(233,232)"/>
<path d="M0 0 C1.65 0 3.3 0 5 0 C5 0.66 5 1.32 5 2 C5.99 2 6.98 2 8 2 C8 2.66 8 3.32 8 4 C8.66 4.33 9.32 4.66 10 5 C9.67 7.64 9.34 10.28 9 13 C8.34 13 7.68 13 7 13 C6.67 13.66 6.34 14.32 6 15 C5 13 4 11 3 9 C2.5875 8.278125 2.175 7.55625 1.75 6.8125 C1 5 1 5 2 2 C1.34 1.34 0.68 0.68 0 0 Z " fill="#B51824" transform="translate(614,224)"/>
<path d="M0 0 C0.33 0 0.66 0 1 0 C1.05406122 1.93719378 1.09282025 3.87481921 1.125 5.8125 C1.14820313 6.89144531 1.17140625 7.97039062 1.1953125 9.08203125 C1 12 1 12 -1 15 C-1 14.34 -1 13.68 -1 13 C-1.66 13 -2.32 13 -3 13 C-3 13.66 -3 14.32 -3 15 C-3.66 15 -4.32 15 -5 15 C-6.33500455 9.65998179 -5.512545 6.16044765 -4 1 C-3.67 1.66 -3.34 2.32 -3 3 C-2.01 3 -1.02 3 0 3 C0 2.01 0 1.02 0 0 Z " fill="#F9FCFB" transform="translate(620,245)"/>
<path d="M0 0 C1.65 0 3.3 0 5 0 C5.67154933 1.28913487 6.33708859 2.58140204 7 3.875 C7.37125 4.59429687 7.7425 5.31359375 8.125 6.0546875 C9 8 9 8 9 10 C6.26752652 11.36623674 4.01801098 11.128426 1 11 C0 10 0 10 -0.09765625 7.71484375 C-0.08605469 6.79832031 -0.07445313 5.88179687 -0.0625 4.9375 C-0.05347656 4.01839844 -0.04445313 3.09929687 -0.03515625 2.15234375 C-0.02355469 1.44207031 -0.01195313 0.73179688 0 0 Z " fill="#F7F8F6" transform="translate(104,125)"/>
<path d="M0 0 C0.66 0 1.32 0 2 0 C2 1.98 2 3.96 2 6 C0.33388095 6.042721 -1.33382885 6.04063832 -3 6 C-3.33 5.67 -3.66 5.34 -4 5 C-5.85772162 5.08984301 -7.71247985 5.24611861 -9.5625 5.4375 C-10.57441406 5.53933594 -11.58632813 5.64117187 -12.62890625 5.74609375 C-13.41136719 5.82988281 -14.19382812 5.91367187 -15 6 C-15 5.34 -15 4.68 -15 4 C-15.66 4 -16.32 4 -17 4 C-17 4.66 -17 5.32 -17 6 C-17.66 6 -18.32 6 -19 6 C-19 5.01 -19 4.02 -19 3 C-19.99 3 -20.98 3 -22 3 C-21.67 2.34 -21.34 1.68 -21 1 C-14.07 1.33 -7.14 1.66 0 2 C0 1.34 0 0.68 0 0 Z " fill="#D51F28" transform="translate(454,274)"/>
<path d="M0 0 C5.19210472 3.80304814 10.15609762 7.76158542 15 12 C14.01 13.485 14.01 13.485 13 15 C10.375 15.1875 10.375 15.1875 8 15 C7.67 12.36 7.34 9.72 7 7 C5.68 7 4.36 7 3 7 C0.75 5 0.75 5 -1 3 C-0.67 2.01 -0.34 1.02 0 0 Z " fill="#F2F2F1" transform="translate(529,217)"/>
<path d="M0 0 C0.66 0 1.32 0 2 0 C3.6875 1.6875 3.6875 1.6875 5 4 C4.6875 6.75 4.6875 6.75 4 9 C3.67 8.34 3.34 7.68 3 7 C2.34 7 1.68 7 1 7 C1 6.01 1 5.02 1 4 C0.34 4 -0.32 4 -1 4 C-1 15.55 -1 27.1 -1 39 C-1.33 39 -1.66 39 -2 39 C-2.04942365 33.927993 -2.08573068 28.85612606 -2.10986328 23.78393555 C-2.11992326 22.05832477 -2.13357276 20.33273105 -2.15087891 18.60717773 C-2.17512754 16.1273986 -2.18648301 13.64784477 -2.1953125 11.16796875 C-2.20563507 10.39599655 -2.21595764 9.62402435 -2.22659302 8.82865906 C-2.22739422 5.00718524 -2.17242595 3.25863893 0 0 Z " fill="#EBE5E1" transform="translate(103,161)"/>
<path d="M0 0 C0.33 0 0.66 0 1 0 C1.66 1.98 2.32 3.96 3 6 C2.67 4.02 2.34 2.04 2 0 C2.66 0 3.32 0 4 0 C4 0.66 4 1.32 4 2 C4.66 2 5.32 2 6 2 C6.6319296 8.00333124 4.37544123 12.63404795 2 18 C1.34 18 0.68 18 0 18 C0 12.06 0 6.12 0 0 Z " fill="#C4181D" transform="translate(240,216)"/>
<path d="M0 0 C1.32 0 2.64 0 4 0 C4 0.66 4 1.32 4 2 C4.66 2.33 5.32 2.66 6 3 C3.02640551 4.48679725 0.33700821 4.11112605 -2.9765625 4.09765625 C-3.66181 4.0962413 -4.3470575 4.09482635 -5.05307007 4.09336853 C-7.24375761 4.08776675 -9.4343433 4.07521406 -11.625 4.0625 C-13.10937352 4.05748522 -14.59374865 4.05292228 -16.078125 4.04882812 C-19.71878315 4.03779677 -23.35938164 4.02053099 -27 4 C-27 3.67 -27 3.34 -27 3 C-21.39 3 -15.78 3 -10 3 C-10 2.34 -10 1.68 -10 1 C-6.7 1 -3.4 1 0 1 C0 0.67 0 0.34 0 0 Z " fill="#C70C18" transform="translate(186,120)"/>
<path d="M0 0 C5.75 0.75 5.75 0.75 8 3 C9.2065625 3.1546875 9.2065625 3.1546875 10.4375 3.3125 C13 4 13 4 14.8125 6.4375 C16 9 16 9 16 11 C15.01 11.33 14.02 11.66 13 12 C10.8125 10.6875 10.8125 10.6875 9 9 C9 8.34 9 7.68 9 7 C8.443125 6.773125 7.88625 6.54625 7.3125 6.3125 C4.36753316 4.64103234 2.31843456 2.44723648 0 0 Z " fill="#EEE9E8" transform="translate(535,252)"/>
<path d="M0 0 C0.33 0 0.66 0 1 0 C1 2.97 1 5.94 1 9 C2.65 8.67 4.3 8.34 6 8 C6 8.66 6 9.32 6 10 C6.66 10 7.32 10 8 10 C7.67 10.99 7.34 11.98 7 13 C7.66 13.33 8.32 13.66 9 14 C8.67 14.66 8.34 15.32 8 16 C8.33 16.66 8.66 17.32 9 18 C4.73794894 17.52643877 2.71306207 15.15301808 0 12 C-1.81710041 8.2360063 -0.59818145 3.9878763 0 0 Z " fill="#B01A22" transform="translate(582,200)"/>
<path d="M0 0 C0.99 0 1.98 0 3 0 C2.7525 0.5775 2.505 1.155 2.25 1.75 C2.1675 2.4925 2.085 3.235 2 4 C3.85432087 6.27144074 3.85432087 6.27144074 6 8 C4.35 8 2.7 8 1 8 C1 8.66 1 9.32 1 10 C0.01 10 -0.98 10 -2 10 C-2 10.66 -2 11.32 -2 12 C-3.32 12 -4.64 12 -6 12 C-6.33 11.01 -6.66 10.02 -7 9 C-6.21625 8.2575 -5.4325 7.515 -4.625 6.75 C-2.43495469 4.45566682 -1.17268614 2.87841142 0 0 Z " fill="#F4F8F6" transform="translate(586,176)"/>
<path d="M0 0 C2.33333823 2.12121657 3.9148886 4.01594365 5 7 C4.625 9.25 4.625 9.25 4 11 C1.33333333 11 -1.33333333 11 -4 11 C-3.21681311 7.08406554 -1.60820142 3.63593365 0 0 Z " fill="#ECE3E0" transform="translate(260,189)"/>
<path d="M0 0 C8.58 0 17.16 0 26 0 C26.66 1.32 27.32 2.64 28 4 C28.66 3.01 29.32 2.02 30 1 C30.33 2.32 30.66 3.64 31 5 C30.34 5 29.68 5 29 5 C28.67 6.32 28.34 7.64 28 9 C28.66 9.33 29.32 9.66 30 10 C29.34 11.32 28.68 12.64 28 14 C27.32942113 12.2097939 26.6636531 10.41778511 26 8.625 C25.62875 7.62726563 25.2575 6.62953125 24.875 5.6015625 C24 3 24 3 24 1 C16.08 1 8.16 1 0 1 C0 0.67 0 0.34 0 0 Z " fill="#E5C9CA" transform="translate(248,255)"/>
<path d="M0 0 C0.66 0 1.32 0 2 0 C1.896875 0.7425 1.79375 1.485 1.6875 2.25 C1.75578565 5.15740951 1.75578565 5.15740951 4 7.3125 C7.9905675 9.55719422 10.46274093 9.14876259 15 9 C15.66 9.66 16.32 10.32 17 11 C13.89046621 12.5547669 11.43733239 12.28644437 8 12 C3.15272506 9.37439274 -0.8904866 5.6474971 -5 2 C-4.360625 1.855625 -3.72125 1.71125 -3.0625 1.5625 C-1.02454854 1.18992819 -1.02454854 1.18992819 0 0 Z " fill="#A82027" transform="translate(581,257)"/>
<path d="M0 0 C0.33 0.66 0.66 1.32 1 2 C1.66 2.33 2.32 2.66 3 3 C3 3.99 3 4.98 3 6 C0.54724859 7.2263757 -1.0505781 7.11415314 -3.7890625 7.09765625 C-4.73007813 7.09443359 -5.67109375 7.09121094 -6.640625 7.08789062 C-7.62546875 7.07951172 -8.6103125 7.07113281 -9.625 7.0625 C-10.61757812 7.05798828 -11.61015625 7.05347656 -12.6328125 7.04882812 C-15.0886016 7.03702145 -17.54427104 7.020554 -20 7 C-20 6.34 -20 5.68 -20 5 C-14.39 5 -8.78 5 -3 5 C-3 4.34 -3 3.68 -3 3 C-2.34 3 -1.68 3 -1 3 C-0.67 2.01 -0.34 1.02 0 0 Z " fill="#D11D24" transform="translate(245,272)"/>
<path d="M0 0 C-0.33 1.32 -0.66 2.64 -1 4 C-8.26 3.67 -15.52 3.34 -23 3 C-23 2.67 -23 2.34 -23 2 C-15.26134446 -0.13480153 -7.99976044 -0.20483028 0 0 Z " fill="#E7121B" transform="translate(352,184)"/>
<path d="M0 0 C9.57 0 19.14 0 29 0 C26.73106888 4.53786224 24.90133466 5.94678157 21 9 C21.65900754 5.92463146 22.53867783 3.92264434 24 1 C16.08 1 8.16 1 0 1 C0 0.67 0 0.34 0 0 Z " fill="#F3D0CE" transform="translate(563,125)"/>
<path d="M0 0 C1.32 0.33 2.64 0.66 4 1 C3.01 1.495 3.01 1.495 2 2 C2.99 3.485 2.99 3.485 4 5 C4.22705078 6.90112305 4.22705078 6.90112305 4.1953125 9.01171875 C4.18886719 9.76904297 4.18242188 10.52636719 4.17578125 11.30664062 C4.15902344 12.09232422 4.14226563 12.87800781 4.125 13.6875 C4.11597656 14.48478516 4.10695313 15.28207031 4.09765625 16.10351562 C4.07411585 18.069139 4.03824547 20.03460775 4 22 C3.67 22 3.34 22 3 22 C3 16.72 3 11.44 3 6 C2.34 6 1.68 6 1 6 C1 11.28 1 16.56 1 22 C0.67 22 0.34 22 0 22 C0 14.74 0 7.48 0 0 Z " fill="#B22C2C" transform="translate(512,234)"/>
<path d="M0 0 C1.125 3.75 1.125 3.75 0 6 C0.99 6 1.98 6 3 6 C2.67 6.99 2.34 7.98 2 9 C-0.31 9.33 -2.62 9.66 -5 10 C-5 9.34 -5 8.68 -5 8 C-5.66 7.67 -6.32 7.34 -7 7 C-5.66667905 3.00003714 -3.5042173 2.16217663 0 0 Z " fill="#F5F9F8" transform="translate(517,166)"/>
<path d="M0 0 C5.01113235 1.4317521 6.94469549 3.98445693 10 8 C4.375 9.125 4.375 9.125 1 8 C0.67 5.36 0.34 2.72 0 0 Z " fill="#F2EEED" transform="translate(544,231)"/>
<path d="M0 0 C2.05123248 2.05123248 2.64147118 3.27005063 3.625 5.9375 C3.88539063 6.62714844 4.14578125 7.31679688 4.4140625 8.02734375 C5 10 5 10 5 13 C3.35 13 1.7 13 0 13 C-1.98384711 9.03230578 -1.32630565 4.14470514 0 0 Z " fill="#F4E8E5" transform="translate(290,262)"/>
<path d="M0 0 C2.475 0.99 2.475 0.99 5 2 C5 1.34 5 0.68 5 0 C7.9375 0.75 7.9375 0.75 11 2 C12.406617 4.90700847 12.04092665 5.87722005 11 9 C11.66 9 12.32 9 13 9 C12.67 9.66 12.34 10.32 12 11 C10.18401175 9.54601271 8.37230481 8.08667675 6.5625 6.625 C5.04849609 5.40683594 5.04849609 5.40683594 3.50390625 4.1640625 C1 2 1 2 0 0 Z " fill="#EADBD8" transform="translate(519,238)"/>
<path d="M0 0 C7.92 0 15.84 0 24 0 C24 0.33 24 0.66 24 1 C17.73 1 11.46 1 5 1 C5 1.66 5 2.32 5 3 C8.63 3 12.26 3 16 3 C16 3.33 16 3.66 16 4 C13.89611431 4.05402274 11.79183286 4.09280256 9.6875 4.125 C7.92986328 4.15980469 7.92986328 4.15980469 6.13671875 4.1953125 C3 4 3 4 0 2 C0 1.34 0 0.68 0 0 Z " fill="#CB0F1E" transform="translate(488,276)"/>
<path d="M0 0 C-0.33 0.66 -0.66 1.32 -1 2 C0.98 2 2.96 2 5 2 C4.01 3.485 4.01 3.485 3 5 C3.33 5.66 3.66 6.32 4 7 C3.83219837 9.69565202 3.38844355 12.32405554 3 15 C2.67 15 2.34 15 2 15 C1.67 12.03 1.34 9.06 1 6 C-1.97 5.01 -4.94 4.02 -8 3 C-6 0 -6 0 -4 -0.75 C-2 -1 -2 -1 0 0 Z " fill="#B0131D" transform="translate(595,169)"/>
<path d="M0 0 C1.34173403 0.92543709 2.67320159 1.86577405 4 2.8125 C5.11375 3.59560547 5.11375 3.59560547 6.25 4.39453125 C6.8275 4.92433594 7.405 5.45414062 8 6 C8 6.99 8 7.98 8 9 C5 9 5 9 2 7 C1.01 7.495 1.01 7.495 0 8 C0.33 6.35 0.66 4.7 1 3 C-0.32 3.33 -1.64 3.66 -3 4 C-3.33 3.34 -3.66 2.68 -4 2 C-2.68 1.34 -1.36 0.68 0 0 Z " fill="#EFEFED" transform="translate(568,252)"/>
<path d="M0 0 C0.66 0 1.32 0 2 0 C3.20272819 2.40545638 3.10071472 3.94996953 3.0625 6.625 C3.05347656 7.44226563 3.04445313 8.25953125 3.03515625 9.1015625 C3.02355469 9.72804687 3.01195312 10.35453125 3 11 C2.01 11.495 2.01 11.495 1 12 C1 10.68 1 9.36 1 8 C0.01 8 -0.98 8 -2 8 C-2.6875 6.25 -2.6875 6.25 -3 4 C-1.6875 1.75 -1.6875 1.75 0 0 Z " fill="#D91926" transform="translate(277,216)"/>
<path d="M0 0 C0.99 0.33 1.98 0.66 3 1 C-0.96 4.96 -4.92 8.92 -9 13 C-9.66 12.01 -10.32 11.02 -11 10 C-6.69230769 4.21538462 -6.69230769 4.21538462 -3.1875 3.125 C-2.1046875 3.063125 -2.1046875 3.063125 -1 3 C-0.67 2.01 -0.34 1.02 0 0 Z " fill="#EADFD9" transform="translate(554,160)"/>
<path d="M0 0 C0.33 1.32 0.66 2.64 1 4 C-0.28965176 5.37562854 -1.62689293 6.70766393 -3 8 C-3.7872678 10.1381966 -3.7872678 10.1381966 -4 12 C-6 11 -8 10 -10 9 C-6.7 6.03 -3.4 3.06 0 0 Z " fill="#F6EBEC" transform="translate(546,140)"/>
<path d="M0 0 C0.66 0 1.32 0 2 0 C2.08076963 2.45898655 2.14037143 4.91533742 2.1875 7.375 C2.21263672 8.07367188 2.23777344 8.77234375 2.26367188 9.4921875 C2.29296875 11.5234375 2.29296875 11.5234375 2 15 C1.01 15.66 0.02 16.32 -1 17 C-1.12036664 11.22240116 -0.8320582 5.72040011 0 0 Z " fill="#D11825" transform="translate(197,216)"/>
<path d="M0 0 C1.98 0 3.96 0 6 0 C6 0.99 6 1.98 6 3 C4.68 3 3.36 3 2 3 C2 3.66 2 4.32 2 5 C4.64 5.33 7.28 5.66 10 6 C9.01 7.485 9.01 7.485 8 9 C8.33 9.66 8.66 10.32 9 11 C4.04303419 9.76075855 1.88341534 8.21422242 -1 4 C-0.34 3.34 0.32 2.68 1 2 C0.67 1.34 0.34 0.68 0 0 Z " fill="#CB1F2C" transform="translate(526,208)"/>
<path d="M0 0 C0.33 0 0.66 0 1 0 C0.93999894 1.6260287 0.8512115 3.25101549 0.75 4.875 C0.70359375 5.77992188 0.6571875 6.68484375 0.609375 7.6171875 C0 10 0 10 -1.859375 11.2578125 C-3.56881656 11.85050209 -5.28357224 12.42785741 -7 13 C-5.37621488 8.27626146 -2.89006982 4.05818166 0 0 Z " fill="#EADCD9" transform="translate(141,154)"/>
<path d="M0 0 C-0.33 1.32 -0.66 2.64 -1 4 C-2.45945288 3.91291331 -3.91765868 3.80473093 -5.375 3.6875 C-6.18710937 3.62949219 -6.99921875 3.57148438 -7.8359375 3.51171875 C-10 3 -10 3 -12 0 C-7.66726186 -0.92844389 -4.33273814 -0.92844389 0 0 Z " fill="#F6F4F5" transform="translate(544,249)"/>
<path d="M0 0 C2.72426311 2.35277269 3.8141763 4.62496331 5 8 C5.66 8 6.32 8 7 8 C7.99 10.31 8.98 12.62 10 15 C10.33 15 10.66 15 11 15 C11 16.98 11 18.96 11 21 C8.0718145 17.39750049 5.97587472 13.4592011 3.8125 9.375 C3.44447266 8.694375 3.07644531 8.01375 2.69726562 7.3125 C0 2.24824617 0 2.24824617 0 0 Z " fill="#9D171F" transform="translate(109,125)"/>
<path d="M0 0 C0.33 0.99 0.66 1.98 1 3 C1.66 3 2.32 3 3 3 C4.5078125 5.1171875 4.5078125 5.1171875 6.125 7.875 C6.66382812 8.77992188 7.20265625 9.68484375 7.7578125 10.6171875 C9 13 9 13 9 15 C7.68 15 6.36 15 5 15 C4.87625 14.195625 4.7525 13.39125 4.625 12.5625 C4.41875 11.716875 4.2125 10.87125 4 10 C3.34 9.67 2.68 9.34 2 9 C0.37265234 5.65489648 0 3.81164166 0 0 Z " fill="#A81F2B" transform="translate(103,165)"/>
<path d="M0 0 C2.16235504 3.24353256 2.21879428 3.61944481 1.7578125 7.23046875 C1.66113281 8.03291016 1.56445312 8.83535156 1.46484375 9.66210938 C1.35269531 10.49548828 1.24054687 11.32886719 1.125 12.1875 C1.02058594 13.03248047 0.91617188 13.87746094 0.80859375 14.74804688 C0.54940443 16.83334275 0.27605197 18.91686936 0 21 C-0.33 21 -0.66 21 -1 21 C-2.51708428 6.21867882 -2.51708428 6.21867882 0 0 Z " fill="#B60E17" transform="translate(570,187)"/>
<path d="M0 0 C-0.66 0 -1.32 0 -2 0 C-2.33 0.99 -2.66 1.98 -3 3 C-4.62890625 4.60546875 -4.62890625 4.60546875 -6.5625 6.1875 C-7.20316406 6.71730469 -7.84382812 7.24710938 -8.50390625 7.79296875 C-8.99761719 8.19128906 -9.49132812 8.58960938 -10 9 C-10.66 8.34 -11.32 7.68 -12 7 C-11.34 7 -10.68 7 -10 7 C-10 5.68 -10 4.36 -10 3 C-9.01 3 -8.02 3 -7 3 C-6.67 2.01 -6.34 1.02 -6 0 C-3.50907189 -1.24546405 -2.58919267 -0.7767578 0 0 Z " fill="#EFE8E2" transform="translate(582,137)"/>
<path d="M0 0 C5.61 0.33 11.22 0.66 17 1 C17 1.66 17 2.32 17 3 C13.04 3 9.08 3 5 3 C5 3.66 5 4.32 5 5 C4.34 5 3.68 5 3 5 C3 4.01 3 3.02 3 2 C2.01 2 1.02 2 0 2 C0 1.34 0 0.68 0 0 Z " fill="#D4191D" transform="translate(432,275)"/>
<path d="M0 0 C0.99 0.33 1.98 0.66 3 1 C3.33 2.32 3.66 3.64 4 5 C1.69 6.98 -0.62 8.96 -3 11 C-3.33 10.34 -3.66 9.68 -4 9 C-3.22265625 6.8359375 -3.22265625 6.8359375 -2.0625 4.375 C-1.68222656 3.55773437 -1.30195313 2.74046875 -0.91015625 1.8984375 C-0.60980469 1.27195313 -0.30945313 0.64546875 0 0 Z " fill="#D0333B" transform="translate(258,226)"/>
<path d="M0 0 C3.0916909 2.52956528 3.90931332 5.22454612 5 9 C3.35 9 1.7 9 0 9 C-1.125 6.75 -1.125 6.75 -2 4 C-1.125 1.6875 -1.125 1.6875 0 0 Z " fill="#F0EBEA" transform="translate(122,151)"/>
<path d="M0 0 C1.65 0 3.3 0 5 0 C5.67154933 1.28913487 6.33708859 2.58140204 7 3.875 C7.37125 4.59429687 7.7425 5.31359375 8.125 6.0546875 C9 8 9 8 9 10 C7.68 10.33 6.36 10.66 5 11 C3.875 9.25 3.875 9.25 3 7 C3.875 4.75 3.875 4.75 5 3 C2.525 2.01 2.525 2.01 0 1 C0 0.67 0 0.34 0 0 Z " fill="#EEE0DE" transform="translate(104,125)"/>
<path d="M0 0 C3.96 0 7.92 0 12 0 C11.67 0.99 11.34 1.98 11 3 C4.25 4.125 4.25 4.125 2 3 C2 2.34 2 1.68 2 1 C1.34 0.67 0.68 0.34 0 0 Z " fill="#FAFAFC" transform="translate(592,225)"/>
<path d="M0 0 C1.32 0 2.64 0 4 0 C4 2.64 4 5.28 4 8 C2.02 8.99 2.02 8.99 0 10 C0 6.7 0 3.4 0 0 Z " fill="#DA1723" transform="translate(400,264)"/>
<path d="M0 0 C1.98 0 3.96 0 6 0 C5.34 3.3 4.68 6.6 4 10 C3.67 10 3.34 10 3 10 C2.67 8.02 2.34 6.04 2 4 C1.01 5.32 0.02 6.64 -1 8 C-1.125 2.25 -1.125 2.25 0 0 Z " fill="#F4ECEA" transform="translate(162,160)"/>
<path d="M0 0 C8.44646925 6.15034169 8.44646925 6.15034169 12 10 C9.69 10 7.38 10 5 10 C5.66 9.67 6.32 9.34 7 9 C6.67 8.34 6.34 7.68 6 7 C5.01 6.67 4.02 6.34 3 6 C0.8614515 3.8614515 0.57344937 2.86724686 0 0 Z " fill="#F1E4E0" transform="translate(514,205)"/>
<path d="M0 0 C0.33 0 0.66 0 1 0 C1 1.65 1 3.3 1 5 C5.29 5.33 9.58 5.66 14 6 C14 6.33 14 6.66 14 7 C8.72 7 3.44 7 -2 7 C-1 2 -1 2 0 0 Z " fill="#F3E4DD" transform="translate(227,268)"/>
<path d="M0 0 C2.41847994 2.92119768 3.68706766 5.4915068 4.75 9.125 C5.01296875 9.99382812 5.2759375 10.86265625 5.546875 11.7578125 C6 14 6 14 5 16 C3.68 15.67 2.36 15.34 1 15 C1.66 15 2.32 15 3 15 C3 12.69 3 10.38 3 8 C2.34 8 1.68 8 1 8 C0.67 5.36 0.34 2.72 0 0 Z " fill="#F3DFE1" transform="translate(281,240)"/>
<path d="M0 0 C2.625 0.9375 2.625 0.9375 5 2 C5 2.99 5 3.98 5 5 C3.02 5.33 1.04 5.66 -1 6 C-1 5.34 -1 4.68 -1 4 C-1.66 4 -2.32 4 -3 4 C-2.67 3.01 -2.34 2.02 -2 1 C-1.34 0.67 -0.68 0.34 0 0 Z " fill="#DD1A25" transform="translate(275,208)"/>
<path d="M0 0 C2.97 0.495 2.97 0.495 6 1 C8.28571429 9.42857143 8.28571429 9.42857143 8 14 C6.80900896 11.61801792 5.65802632 9.24171054 4.5625 6.8125 C3.25275684 3.70884971 3.25275684 3.70884971 0 3 C0 2.01 0 1.02 0 0 Z " fill="#D52A37" transform="translate(258,186)"/>
<path d="M0 0 C-1.44781793 3.44428265 -3.27694609 5.36130962 -6.125 7.75 C-7.21167969 8.67039063 -7.21167969 8.67039063 -8.3203125 9.609375 C-8.87460937 10.06828125 -9.42890625 10.5271875 -10 11 C-10.33 9.68 -10.66 8.36 -11 7 C-10.01 6.67 -9.02 6.34 -8 6 C-7.67 5.34 -7.34 4.68 -7 4 C-6.01 4 -5.02 4 -4 4 C-4.33 3.01 -4.66 2.02 -5 1 C-3 0 -3 0 0 0 Z " fill="#B42B32" transform="translate(547,138)"/>
<path d="M0 0 C0.66 0.66 1.32 1.32 2 2 C1.625 4.4375 1.625 4.4375 1 7 C1 7.99 1 8.98 1 10 C-0.32 9.34 -1.64 8.68 -3 8 C-2.25 2.25 -2.25 2.25 0 0 Z " fill="#EFE6E4" transform="translate(158,126)"/>
<path d="M0 0 C0.33 0 0.66 0 1 0 C1 3.96 1 7.92 1 12 C0.01 11.67 -0.98 11.34 -2 11 C-2.66 11.66 -3.32 12.32 -4 13 C-3.71517632 11.58194169 -3.42181856 10.16559621 -3.125 8.75 C-2.96257812 7.96109375 -2.80015625 7.1721875 -2.6328125 6.359375 C-2.00849925 4.03168856 -1.15161458 2.10968048 0 0 Z " fill="#C7141E" transform="translate(247,262)"/>
<path d="M0 0 C-0.33 0.99 -0.66 1.98 -1 3 C-1.99 3 -2.98 3 -4 3 C-4.33 4.65 -4.66 6.3 -5 8 C-5.66 7.34 -6.32 6.68 -7 6 C-8.98821313 5.60235737 -10.98944339 5.26224651 -13 5 C-3.38461538 0 -3.38461538 0 0 0 Z " fill="#FAF9FA" transform="translate(615,263)"/>
<path d="M0 0 C2.64 0 5.28 0 8 0 C7.34 0.66 6.68 1.32 6 2 C6.66 2.66 7.32 3.32 8 4 C6.54207116 4.05399736 5.08357288 4.09279177 3.625 4.125 C2.81289063 4.14820313 2.00078125 4.17140625 1.1640625 4.1953125 C-1 4 -1 4 -3 2 C-2.01 2 -1.02 2 0 2 C0 1.34 0 0.68 0 0 Z " fill="#AA1318" transform="translate(595,217)"/>
<path d="M0 0 C0.66 1.32 1.32 2.64 2 4 C2.66 3.67 3.32 3.34 4 3 C5.125 6.75 5.125 6.75 4 9 C2.68 9 1.36 9 0 9 C0 8.34 0 7.68 0 7 C-0.66 6.67 -1.32 6.34 -2 6 C-1.34 4.02 -0.68 2.04 0 0 Z " fill="#C71F2B" transform="translate(147,190)"/>
<path d="M0 0 C1.60031344 3.20062687 0.03173691 5.72271806 -1 9 C-3.97 8.505 -3.97 8.505 -7 8 C-6.02133662 6.85373678 -5.04205413 5.70800212 -4.0625 4.5625 C-3.51722656 3.92441406 -2.97195313 3.28632813 -2.41015625 2.62890625 C-1.63204305 1.73008851 -0.84063472 0.84063472 0 0 Z " fill="#EBE3DF" transform="translate(525,158)"/>
<path d="M0 0 C0.7734375 -0.01417969 1.546875 -0.02835938 2.34375 -0.04296875 C4.5 0.1875 4.5 0.1875 7.5 2.1875 C7.5 2.8475 7.5 3.5075 7.5 4.1875 C4.53 3.1975 1.56 2.2075 -1.5 1.1875 C-1.83 2.5075 -2.16 3.8275 -2.5 5.1875 C-4.15 3.8675 -5.8 2.5475 -7.5 1.1875 C-4.71398777 0.25882926 -2.88933911 0.02407783 0 0 Z " fill="#EEEEEB" transform="translate(520.5,231.8125)"/>
<path d="M0 0 C5.95945778 -0.31365567 9.72217292 0.14997338 15 3 C15.99 4.485 15.99 4.485 17 6 C14 6 14 6 12.140625 4.57421875 C9.64515581 2.73904707 7.78394444 2.33146418 4.75 1.8125 C3.85796875 1.65394531 2.9659375 1.49539062 2.046875 1.33203125 C1.37140625 1.22246094 0.6959375 1.11289063 0 1 C0 0.67 0 0.34 0 0 Z " fill="#9A2224" transform="translate(592,229)"/>
<path d="M0 0 C0.66 0 1.32 0 2 0 C2.86343824 2.12124966 3.71550648 4.24713072 4.5625 6.375 C5.27599609 8.15003906 5.27599609 8.15003906 6.00390625 9.9609375 C7 13 7 13 6 15 C2.22279206 10.50332388 0 5.9028782 0 0 Z " fill="#B8262D" transform="translate(259,222)"/>
<path d="M0 0 C1.98 0 3.96 0 6 0 C6 2.97 6 5.94 6 9 C5.01 9 4.02 9 3 9 C3 6.36 3 3.72 3 1 C2.01 0.67 1.02 0.34 0 0 Z " fill="#EFE3E1" transform="translate(590,175)"/>
<path d="M0 0 C1.485 0.99 1.485 0.99 3 2 C3.34057617 3.87939453 3.34057617 3.87939453 3.29296875 6.1328125 C3.28330078 6.93847656 3.27363281 7.74414062 3.26367188 8.57421875 C3.23853516 9.41597656 3.21339844 10.25773438 3.1875 11.125 C3.17396484 11.97449219 3.16042969 12.82398438 3.14648438 13.69921875 C3.11108219 15.79974837 3.05727401 17.89995293 3 20 C2.67 20 2.34 20 2 20 C1.92652344 18.69675781 1.92652344 18.69675781 1.8515625 17.3671875 C1.77679687 16.21476562 1.70203125 15.06234375 1.625 13.875 C1.55539062 12.73804688 1.48578125 11.60109375 1.4140625 10.4296875 C1.00556124 7.04606384 0.19032431 4.18387559 -1 1 C-0.67 0.67 -0.34 0.34 0 0 Z " fill="#E2C1C2" transform="translate(611,235)"/>
<path d="M0 0 C1.32 0.33 2.64 0.66 4 1 C4.33 2.32 4.66 3.64 5 5 C5.99 4.67 6.98 4.34 8 4 C8 5.32 8 6.64 8 8 C7.34 8 6.68 8 6 8 C5.67 8.66 5.34 9.32 5 10 C3.33333333 6.66666667 1.66666667 3.33333333 0 0 Z " fill="#AF2632" transform="translate(615,229)"/>
<path d="M0 0 C0.86625 0.495 0.86625 0.495 1.75 1 C4.19883862 2.27075898 4.19883862 2.27075898 8 2 C9.8125 4.3125 9.8125 4.3125 11 7 C10.67 7.99 10.34 8.98 10 10 C8.33037631 8.52417192 6.6643694 7.04425109 5 5.5625 C4.071875 4.73878906 3.14375 3.91507813 2.1875 3.06640625 C1.465625 2.38449219 0.74375 1.70257813 0 1 C0 0.67 0 0.34 0 0 Z " fill="#AF2129" transform="translate(529,216)"/>
<path d="M0 0 C1.70840281 1.63412443 2.93453047 2.86906094 4 5 C4.99 5 5.98 5 7 5 C6 8 6 8 3.9375 9.1875 C3.298125 9.455625 2.65875 9.72375 2 10 C0.39644899 6.49223216 -0.22036864 3.85645121 0 0 Z " fill="#B7383D" transform="translate(128,205)"/>
<path d="M0 0 C-0.33 0.99 -0.66 1.98 -1 3 C-1.99 3 -2.98 3 -4 3 C-4 3.66 -4 4.32 -4 5 C-9.28 5 -14.56 5 -20 5 C-20 4.67 -20 4.34 -20 4 C-18.55367187 3.94392578 -18.55367187 3.94392578 -17.078125 3.88671875 C-15.81484375 3.82097656 -14.5515625 3.75523437 -13.25 3.6875 C-11.99703125 3.62949219 -10.7440625 3.57148438 -9.453125 3.51171875 C-5.69425419 2.95469151 -3.43863491 0 0 0 Z " fill="#96202C" transform="translate(612,271)"/>
<path d="M0 0 C0.99 0.66 1.98 1.32 3 2 C3.1875 5.125 3.1875 5.125 3 8 C1.68 8.33 0.36 8.66 -1 9 C-2.25541557 5.23375329 -1.37061958 3.62811066 0 0 Z " fill="#F5F3F4" transform="translate(554,239)"/>
<path d="M0 0 C1.34173403 0.92543709 2.67320159 1.86577405 4 2.8125 C5.11375 3.59560547 5.11375 3.59560547 6.25 4.39453125 C7.11625 5.18923828 7.11625 5.18923828 8 6 C8 6.99 8 7.98 8 9 C7.67 8.34 7.34 7.68 7 7 C5.68 7 4.36 7 3 7 C0.75 5 0.75 5 -1 3 C-0.67 2.01 -0.34 1.02 0 0 Z " fill="#F0E7E6" transform="translate(529,217)"/>
<path d="M0 0 C1.65 0.33 3.3 0.66 5 1 C5 3.31 5 5.62 5 8 C4.34 8 3.68 8 3 8 C3 6.35 3 4.7 3 3 C2.34 4.65 1.68 6.3 1 8 C0.67 8 0.34 8 0 8 C-1.125 2.25 -1.125 2.25 0 0 Z " fill="#E21626" transform="translate(266,192)"/>
<path d="M0 0 C2.32472205 2.85306797 3.7508258 5.54074837 5 9 C3.68 8.34 2.36 7.68 1 7 C0.34 7.66 -0.32 8.32 -1 9 C-2.13561748 5.34078813 -1.73078723 3.46157446 0 0 Z " fill="#EADDDC" transform="translate(114,136)"/>
<path d="M0 0 C0.79921875 0.11085938 1.5984375 0.22171875 2.421875 0.3359375 C3.32679688 0.47902344 3.32679688 0.47902344 4.25 0.625 C4.58 1.945 4.91 3.265 5.25 4.625 C2.25 4.625 2.25 4.625 -0.75 3.625 C-0.75 2.965 -0.75 2.305 -0.75 1.625 C-3.39 1.625 -6.03 1.625 -8.75 1.625 C-5.5750906 -0.2828584 -3.64414789 -0.5359041 0 0 Z " fill="#EDE5E5" transform="translate(604.75,267.375)"/>
<path d="M0 0 C1.62463842 -0.05395478 3.24978541 -0.09277195 4.875 -0.125 C5.77992188 -0.14820313 6.68484375 -0.17140625 7.6171875 -0.1953125 C10 0 10 0 12 2 C8.95016004 3.52491998 6.3576631 3.23562548 3 3 C1.27734375 1.484375 1.27734375 1.484375 0 0 Z " fill="#A1111B" transform="translate(586,266)"/>
<path d="M0 0 C0.144375 0.598125 0.28875 1.19625 0.4375 1.8125 C0.8872439 3.56150404 1.42892341 5.28677023 2 7 C1.01 7 0.02 7 -1 7 C-1 8.98 -1 10.96 -1 13 C-1.99 12.67 -2.98 12.34 -4 12 C-2.66666667 8 -1.33333333 4 0 0 Z " fill="#E8CEC8" transform="translate(251,209)"/>
<path d="M0 0 C2.8290723 2.8290723 3.37611108 3.38144425 4 7 C2.35 7.66 0.7 8.32 -1 9 C-0.67 6.03 -0.34 3.06 0 0 Z " fill="#B92932" transform="translate(113,181)"/>
<path d="M0 0 C0.99 0.33 1.98 0.66 3 1 C0.03 3.64 -2.94 6.28 -6 9 C-6.66 8.34 -7.32 7.68 -8 7 C-7.34 7 -6.68 7 -6 7 C-6 5.68 -6 4.36 -6 3 C-5.195625 2.690625 -4.39125 2.38125 -3.5625 2.0625 C-1.10919595 1.23664655 -1.10919595 1.23664655 0 0 Z " fill="#B12526" transform="translate(533,149)"/>
<path d="M0 0 C0.66 0 1.32 0 2 0 C2.33 1.32 2.66 2.64 3 4 C3.99 3.67 4.98 3.34 6 3 C7.125 5.3125 7.125 5.3125 8 8 C7.01 9.485 7.01 9.485 6 11 C4.99735282 9.35577799 3.99794896 7.70957779 3 6.0625 C2.443125 5.14597656 1.88625 4.22945312 1.3125 3.28515625 C0 1 0 1 0 0 Z " fill="#AA181F" transform="translate(120,146)"/>
<path d="M0 0 C1.76923828 0.01353516 1.76923828 0.01353516 3.57421875 0.02734375 C4.47785156 0.03894531 5.38148438 0.05054687 6.3125 0.0625 C6.3125 0.3925 6.3125 0.7225 6.3125 1.0625 C3.6725 1.3925 1.0325 1.7225 -1.6875 2.0625 C-1.6875 2.3925 -1.6875 2.7225 -1.6875 3.0625 C-4.3275 3.0625 -6.9675 3.0625 -9.6875 3.0625 C-9.6875 2.4025 -9.6875 1.7425 -9.6875 1.0625 C-6.26517028 -0.07827657 -3.60076783 -0.03565117 0 0 Z " fill="#CE1928" transform="translate(497.6875,119.9375)"/>
<path d="M0 0 C0.88336837 2.4667645 1.1312406 3.63859372 0.22265625 6.140625 C-0.16019531 6.83671875 -0.54304687 7.5328125 -0.9375 8.25 C-1.31777344 8.95640625 -1.69804687 9.6628125 -2.08984375 10.390625 C-2.39019531 10.92171875 -2.69054687 11.4528125 -3 12 C-4.06546953 8.8035914 -4.07427838 6.34252724 -4 3 C-3.01 3 -2.02 3 -1 3 C-0.67 2.01 -0.34 1.02 0 0 Z " fill="#C1141B" transform="translate(236,242)"/>
<path d="M0 0 C1.32 0.33 2.64 0.66 4 1 C0.535 3.97 0.535 3.97 -3 7 C-3.66 5.68 -4.32 4.36 -5 3 C-3.68 3 -2.36 3 -1 3 C-0.67 2.01 -0.34 1.02 0 0 Z " fill="#F2EDEB" transform="translate(531,181)"/>
<path d="M0 0 C0.66 0 1.32 0 2 0 C3.6875 1.6875 3.6875 1.6875 5 4 C4.6875 6.75 4.6875 6.75 4 9 C3.67 8.34 3.34 7.68 3 7 C2.34 7 1.68 7 1 7 C1 5.68 1 4.36 1 3 C0.34 2.67 -0.32 2.34 -1 2 C-0.67 1.34 -0.34 0.68 0 0 Z " fill="#EDEDEC" transform="translate(103,161)"/>
<path d="M0 0 C0 3.38023517 -0.87455622 5.83468937 -2 9 C-2.99 9 -3.98 9 -5 9 C-5.33 8.01 -5.66 7.02 -6 6 C-4.02 4.02 -2.04 2.04 0 0 Z " fill="#EFE9E7" transform="translate(561,126)"/>
<path d="M0 0 C0.99 0 1.98 0 3 0 C3 0.99 3 1.98 3 3 C2.34 3 1.68 3 1 3 C0.67 4.65 0.34 6.3 0 8 C-0.99 8.33 -1.98 8.66 -3 9 C-2.5020163 5.26512223 -2.12508244 3.18762365 0 0 Z " fill="#CF242D" transform="translate(275,269)"/>
<path d="M0 0 C2.31 0 4.62 0 7 0 C7.625 1.875 7.625 1.875 8 4 C7.34 4.66 6.68 5.32 6 6 C3.97945196 4.35830472 1.97956942 2.69088222 0 1 C0 0.67 0 0.34 0 0 Z " fill="#F0E4E0" transform="translate(549,264)"/>
<path d="M0 0 C1.175625 0.5259375 1.175625 0.5259375 2.375 1.0625 C3.674375 1.5265625 3.674375 1.5265625 5 2 C5.66 1.67 6.32 1.34 7 1 C7 2.65 7 4.3 7 6 C3 6 3 6 1.25 4.6875 C0 3 0 3 0 0 Z " fill="#FCF8FB" transform="translate(611,233)"/>
<path d="M0 0 C3.58620225 1.65517027 6.81530529 3.66455721 10 6 C10.33 6.99 10.66 7.98 11 9 C8 9 8 9 5.95703125 7.28515625 C5.24933594 6.55167969 4.54164063 5.81820312 3.8125 5.0625 C3.09707031 4.33160156 2.38164063 3.60070312 1.64453125 2.84765625 C0 1 0 1 0 0 Z " fill="#A82025" transform="translate(548,232)"/>
<path d="M0 0 C0.33 0 0.66 0 1 0 C1.125 6.625 1.125 6.625 0 10 C-0.99 10 -1.98 10 -3 10 C-2.49287967 6.28111761 -1.88391785 3.26545761 0 0 Z " fill="#EBDAD5" transform="translate(246,222)"/>
<path d="M0 0 C1.32 0.66 2.64 1.32 4 2 C3.01 2.495 3.01 2.495 2 3 C2.66 3.66 3.32 4.32 4 5 C3.01 5 2.02 5 1 5 C0.67 5.99 0.34 6.98 0 8 C-0.99 6.68 -1.98 5.36 -3 4 C-2.34 4 -1.68 4 -1 4 C-0.67 2.68 -0.34 1.36 0 0 Z " fill="#C91D2A" transform="translate(540,216)"/>
<path d="M0 0 C0.99 0 1.98 0 3 0 C3 2.64 3 5.28 3 8 C2.01 8 1.02 8 0 8 C0 5.36 0 2.72 0 0 Z " fill="#D01824" transform="translate(196,192)"/>
<path d="M0 0 C0.66 0.99 1.32 1.98 2 3 C1.125 5.6875 1.125 5.6875 0 8 C-0.33 7.34 -0.66 6.68 -1 6 C-1.66 5.67 -2.32 5.34 -3 5 C-3 3.68 -3 2.36 -3 1 C-2.01 0.67 -1.02 0.34 0 0 Z " fill="#F1F0EE" transform="translate(147,183)"/>
<path d="M0 0 C0.33 1.98 0.66 3.96 1 6 C0.01 5.67 -0.98 5.34 -2 5 C-2 4.34 -2 3.68 -2 3 C-3.32 3.99 -4.64 4.98 -6 6 C-6 3 -6 3 -4.6875 1.3125 C-3 0 -3 0 0 0 Z " fill="#B02025" transform="translate(567,153)"/>
<path d="M0 0 C0.66 0.33 1.32 0.66 2 1 C1.67 1.66 1.34 2.32 1 3 C0.34 3 -0.32 3 -1 3 C-1.103125 3.61875 -1.20625 4.2375 -1.3125 4.875 C-2 7 -2 7 -5 9 C-5 5 -5 5 -2.5 2.25 C-1.675 1.5075 -0.85 0.765 0 0 Z " fill="#F0E4E2" transform="translate(533,151)"/>
<path d="M0 0 C1.32 0 2.64 0 4 0 C2.50902342 3.7952131 0.24299151 5.61042731 -3 8 C-2.37240135 5.07120629 -1.41377341 2.63904371 0 0 Z " fill="#F1E0E1" transform="translate(587,126)"/>
<path d="M0 0 C0.68707555 2.49064888 1 4.37886292 1 7 C-1.31 6.34 -3.62 5.68 -6 5 C-5.195625 4.360625 -4.39125 3.72125 -3.5625 3.0625 C-1.7249496 1.59396498 -1.7249496 1.59396498 0 0 Z " fill="#EFE7E3" transform="translate(517,166)"/>
<path d="M0 0 C1.04449911 3.13349732 0.93423645 3.98968256 0 7 C-1.65 7.33 -3.3 7.66 -5 8 C-3.8141763 4.62496331 -2.72426311 2.35277269 0 0 Z " fill="#DD1825" transform="translate(295,250)"/>
<path d="M0 0 C5.75 3.625 5.75 3.625 8 7 C6.35 7 4.7 7 3 7 C2.67 6.01 2.34 5.02 2 4 C1.34 4 0.68 4 0 4 C0 2.68 0 1.36 0 0 Z " fill="#B11518" transform="translate(519,239)"/>
<path d="M0 0 C0.99 0.33 1.98 0.66 3 1 C2.67 1.99 2.34 2.98 2 4 C1.34 3.67 0.68 3.34 0 3 C0 4.32 0 5.64 0 7 C-0.99 7 -1.98 7 -3 7 C-3.33 6.01 -3.66 5.02 -4 4 C-2.68 2.68 -1.36 1.36 0 0 Z " fill="#FDF9FD" transform="translate(583,181)"/>
<path d="M0 0 C0.99 0.33 1.98 0.66 3 1 C2.04367001 2.29315061 1.08486149 3.58446853 0.125 4.875 C-0.40867187 5.59429687 -0.94234375 6.31359375 -1.4921875 7.0546875 C-3 9 -3 9 -5 11 C-4.44271087 7.65626525 -3.64826111 4.96687001 -2 2 C-1.34 2 -0.68 2 0 2 C0 1.34 0 0.68 0 0 Z " fill="#A21B23" transform="translate(577,180)"/>
<path d="M0 0 C0.99 0 1.98 0 3 0 C3 2.31 3 4.62 3 7 C2.01 7.33 1.02 7.66 0 8 C0 5.36 0 2.72 0 0 Z " fill="#D01824" transform="translate(196,168)"/>
<path d="M0 0 C1.74965358 -0.05429959 3.49979787 -0.09292823 5.25 -0.125 C6.22453125 -0.14820313 7.1990625 -0.17140625 8.203125 -0.1953125 C11.0196498 0.00137219 12.60949036 0.55431084 15 2 C11.20431539 2.97798721 8.4994001 2.92653069 4.6875 2.0625 C3.80449219 1.86785156 2.92148437 1.67320312 2.01171875 1.47265625 C1.34785156 1.31667969 0.68398438 1.16070312 0 1 C0 0.67 0 0.34 0 0 Z " fill="#D01F21" transform="translate(280,277)"/>
<path d="M0 0 C2 2 2 2 2.125 5.125 C2.08375 6.07375 2.0425 7.0225 2 8 C1.67 7.34 1.34 6.68 1 6 C0.34 6 -0.32 6 -1 6 C-1.33 7.32 -1.66 8.64 -2 10 C-3 8 -3 8 -2.44140625 6.0546875 C-2.15136719 5.33539063 -1.86132812 4.61609375 -1.5625 3.875 C-1.27503906 3.15054687 -0.98757812 2.42609375 -0.69140625 1.6796875 C-0.46324219 1.12539063 -0.23507813 0.57109375 0 0 Z " fill="#C42E34" transform="translate(248,256)"/>
<path d="M0 0 C2.50298434 2.93828597 3.46930939 5.17902761 4 9 C3.34 9 2.68 9 2 9 C1.67 7.68 1.34 6.36 1 5 C0.01 5 -0.98 5 -2 5 C-2 4.34 -2 3.68 -2 3 C-1.34 3 -0.68 3 0 3 C0 2.01 0 1.02 0 0 Z " fill="#A61D27" transform="translate(609,235)"/>
<path d="M0 0 C0.99 0.33 1.98 0.66 3 1 C3 1.66 3 2.32 3 3 C4.32 2.67 5.64 2.34 7 2 C7 2.66 7 3.32 7 4 C4.69 4.33 2.38 4.66 0 5 C0 4.34 0 3.68 0 3 C-0.66 2.67 -1.32 2.34 -2 2 C-1.34 1.34 -0.68 0.68 0 0 Z " fill="#F7FBFB" transform="translate(582,217)"/>
<path d="M0 0 C1.98 0.495 1.98 0.495 4 1 C3.30058404 4.14737182 2.23921302 7.02588876 1 10 C-0.125 8.25 -0.125 8.25 -1 6 C-0.0625 3.875 -0.0625 3.875 1 2 C0.67 1.34 0.34 0.68 0 0 Z " fill="#CA1F29" transform="translate(254,192)"/>
<path d="M0 0 C0.66 0.33 1.32 0.66 2 1 C2 1.66 2 2.32 2 3 C0.25 4.6875 0.25 4.6875 -2 6 C-4.25 5.6875 -4.25 5.6875 -6 5 C-4.02 3.35 -2.04 1.7 0 0 Z " fill="#EEE1E1" transform="translate(584,177)"/>
<path d="M0 0 C0.66 0.33 1.32 0.66 2 1 C1.34 2.32 0.68 3.64 0 5 C-2.31 5 -4.62 5 -7 5 C-6.01 4.67 -5.02 4.34 -4 4 C-4 3.34 -4 2.68 -4 2 C-2.125 0.9375 -2.125 0.9375 0 0 Z " fill="#C11B28" transform="translate(612,272)"/>
<path d="M0 0 C0.99 0.33 1.98 0.66 3 1 C2.67 3.31 2.34 5.62 2 8 C1.34 7.67 0.68 7.34 0 7 C0 4.69 0 2.38 0 0 Z " fill="#C92029" transform="translate(227,258)"/>
<path d="M0 0 C0.99 0 1.98 0 3 0 C3 0.66 3 1.32 3 2 C3.66 2.33 4.32 2.66 5 3 C4.01 4.485 4.01 4.485 3 6 C3 5.34 3 4.68 3 4 C2.34 4 1.68 4 1 4 C0.67 4.66 0.34 5.32 0 6 C-0.38218767 4.34385343 -0.71395102 2.67542976 -1 1 C-0.67 0.67 -0.34 0.34 0 0 Z " fill="#F7F4F3" transform="translate(616,254)"/>
<path d="M0 0 C5.94 2.475 5.94 2.475 12 5 C12 5.33 12 5.66 12 6 C7.27536912 5.53680089 3.82942948 4.90108294 0 2 C0 1.34 0 0.68 0 0 Z " fill="#981A1C" transform="translate(580,223)"/>
<path d="M0 0 C0.33 0 0.66 0 1 0 C1.38873828 1.95565258 1.76060833 3.91466504 2.125 5.875 C2.33382812 6.96554688 2.54265625 8.05609375 2.7578125 9.1796875 C2.83773437 10.11039063 2.91765625 11.04109375 3 12 C2.34 12.66 1.68 13.32 1 14 C0.34843591 9.27616037 -0.11950637 4.78025483 0 0 Z " fill="#DD1629" transform="translate(240,216)"/>
<path d="M0 0 C0.99 0 1.98 0 3 0 C2.67 1.65 2.34 3.3 2 5 C0.68 5 -0.64 5 -2 5 C-2 5.66 -2 6.32 -2 7 C-2.66 6.67 -3.32 6.34 -4 6 C-2.1875 3 -2.1875 3 0 0 Z " fill="#BA252F" transform="translate(156,176)"/>
<path d="M0 0 C0 0.99 0 1.98 0 3 C0.99 3.66 1.98 4.32 3 5 C1.8553125 5.2165625 1.8553125 5.2165625 0.6875 5.4375 C-2.08172908 5.9632594 -2.08172908 5.9632594 -5 7 C-3.70700306 4.11562221 -2.34058637 2.12780579 0 0 Z " fill="#B10C18" transform="translate(548,169)"/>
<path d="M0 0 C0 3 0 3 -1.3125 4.60546875 C-1.869375 5.12753906 -2.42625 5.64960938 -3 6.1875 C-3.556875 6.71730469 -4.11375 7.24710938 -4.6875 7.79296875 C-5.120625 8.19128906 -5.55375 8.58960938 -6 9 C-6.66 8.67 -7.32 8.34 -8 8 C-3.375 2.25 -3.375 2.25 0 0 Z " fill="#9C212B" transform="translate(583,135)"/>
<path d="M0 0 C1.125 1.5625 1.125 1.5625 2 4 C1.125 7.75 1.125 7.75 0 11 C-0.33 11 -0.66 11 -1 11 C-1.0270043 9.54176788 -1.04639787 8.08339325 -1.0625 6.625 C-1.07410156 5.81289062 -1.08570313 5.00078125 -1.09765625 4.1640625 C-1 2 -1 2 0 0 Z " fill="#B1171D" transform="translate(610,242)"/>
<path d="M0 0 C0.99928333 2.698065 1.03624754 3.88010429 0.1875 6.6875 C-1 9 -1 9 -3 10 C-2.49287967 6.28111761 -1.88391785 3.26545761 0 0 Z " fill="#EDD1CD" transform="translate(242,232)"/>
<path d="M0 0 C1 2 1 2 1 5 C0.67 5.99 0.34 6.98 0 8 C-1.32 7.67 -2.64 7.34 -4 7 C-1.125 1.125 -1.125 1.125 0 0 Z " fill="#B41E21" transform="translate(146,192)"/>
<path d="M0 0 C2.0625 0.4375 2.0625 0.4375 4 1 C4 2.65 4 4.3 4 6 C3.01 6 2.02 6 1 6 C0.34 4.35 -0.32 2.7 -1 1 C-0.67 0.67 -0.34 0.34 0 0 Z " fill="#F1EEEA" transform="translate(116,182)"/>
<path d="M0 0 C2.475 0.99 2.475 0.99 5 2 C4.67 3.65 4.34 5.3 4 7 C2 5.1875 2 5.1875 0 3 C0 2.01 0 1.02 0 0 Z " fill="#EEEDE9" transform="translate(111,175)"/>
<path d="M0 0 C0.33 0.99 0.66 1.98 1 3 C-0.375 4.5 -0.375 4.5 -2 6 C-2.66 6 -3.32 6 -4 6 C-4.33 6.66 -4.66 7.32 -5 8 C-5.33 6.68 -5.66 5.36 -6 4 C-4.68 4 -3.36 4 -2 4 C-1.34 2.68 -0.68 1.36 0 0 Z " fill="#ECEDEA" transform="translate(562,152)"/>
<path d="M0 0 C1.98 0 3.96 0 6 0 C6 0.99 6 1.98 6 3 C4.68 3 3.36 3 2 3 C1.34 2.01 0.68 1.02 0 0 Z " fill="#F4EFEF" transform="translate(601,271)"/>
<path d="M0 0 C0.66 0.66 1.32 1.32 2 2 C1.96712417 4.72869407 1.43602229 7.2966618 1 10 C0.34 9.34 -0.32 8.68 -1 8 C-0.96712417 5.27130593 -0.43602229 2.7033382 0 0 Z " fill="#CD0D16" transform="translate(274,264)"/>
<path d="M0 0 C0.33 0.99 0.66 1.98 1 3 C1.66 3 2.32 3 3 3 C3.625 5.375 3.625 5.375 4 8 C3.34 8.66 2.68 9.32 2 10 C-0.09350689 6.5980513 -0.17942163 3.94727588 0 0 Z " fill="#C72C34" transform="translate(293,265)"/>
<path d="M0 0 C0.66 0 1.32 0 2 0 C1.75 2.375 1.75 2.375 1 5 C-1.0625 6.3125 -1.0625 6.3125 -3 7 C-3 3.47967572 -2.29648649 2.5614657 0 0 Z " fill="#D42C36" transform="translate(291,250)"/>
<path d="M0 0 C0.66 0 1.32 0 2 0 C2 0.66 2 1.32 2 2 C2.66 2 3.32 2 4 2 C4 3.98 4 5.96 4 8 C3.34 8 2.68 8 2 8 C1.34 5.36 0.68 2.72 0 0 Z " fill="#D91121" transform="translate(242,216)"/>
<path d="M0 0 C2.475 0.495 2.475 0.495 5 1 C4.34 2.98 3.68 4.96 3 7 C0 3.375 0 3.375 0 0 Z " fill="#F2EBE5" transform="translate(572,209)"/>
<path d="M0 0 C0.99 0.33 1.98 0.66 3 1 C-0.75 5.875 -0.75 5.875 -3 7 C-3.1875 4.625 -3.1875 4.625 -3 2 C-2.01 1.34 -1.02 0.68 0 0 Z " fill="#E7D6D1" transform="translate(515,198)"/>
<path d="M0 0 C0 1.32 0 2.64 0 4 C0.99 4.33 1.98 4.66 3 5 C2.01 5.495 2.01 5.495 1 6 C-1.0625 5.25 -1.0625 5.25 -3 4 C-3.33 3.01 -3.66 2.02 -4 1 C-2 0 -2 0 0 0 Z " fill="#F6F1F1" transform="translate(524,185)"/>
<path d="M0 0 C2.50037734 2.17424117 3.43628586 3.73045798 4 7 C2.68 7 1.36 7 0 7 C0 4.69 0 2.38 0 0 Z " fill="#B42F39" transform="translate(108,173)"/>
<path d="M0 0 C1.98 0 3.96 0 6 0 C5.01 1.98 4.02 3.96 3 6 C0.8614515 3.8614515 0.57344937 2.86724686 0 0 Z " fill="#ECE9E6" transform="translate(155,168)"/>
<path d="M0 0 C2 2 2 2 2.125 4.625 C2.08375 5.40875 2.0425 6.1925 2 7 C1.01 6.67 0.02 6.34 -1 6 C-1.6875 3.9375 -1.6875 3.9375 -2 2 C-1.34 2 -0.68 2 0 2 C0 1.34 0 0.68 0 0 Z " fill="#B2202E" transform="translate(132,161)"/>
<path d="M0 0 C2.97 0.495 2.97 0.495 6 1 C5.67 2.65 5.34 4.3 5 6 C4.34 6 3.68 6 3 6 C2.67 4.68 2.34 3.36 2 2 C1.34 2 0.68 2 0 2 C0 1.34 0 0.68 0 0 Z " fill="#B8141C" transform="translate(120,144)"/>
<path d="M0 0 C0.33 1.32 0.66 2.64 1 4 C-0.65 5.32 -2.3 6.64 -4 8 C-4.66 7.67 -5.32 7.34 -6 7 C-4.02 4.69 -2.04 2.38 0 0 Z " fill="#F3F8F3" transform="translate(546,140)"/>
<path d="M0 0 C2.31 0.33 4.62 0.66 7 1 C7 1.99 7 2.98 7 4 C6.34 4 5.68 4 5 4 C4.67 4.66 4.34 5.32 4 6 C2.62437146 4.71034824 1.29233607 3.37310707 0 2 C0 1.34 0 0.68 0 0 Z " fill="#B4121E" transform="translate(602,234)"/>
<path d="M0 0 C1.32 0.66 2.64 1.32 4 2 C3.67 3.32 3.34 4.64 3 6 C1.68 4.68 0.36 3.36 -1 2 C-0.67 1.34 -0.34 0.68 0 0 Z " fill="#BD2A32" transform="translate(545,227)"/>
<path d="M0 0 C1.32 0.66 2.64 1.32 4 2 C2.68 3.32 1.36 4.64 0 6 C-1.125 2.25 -1.125 2.25 0 0 Z " fill="#F1ECE8" transform="translate(518,192)"/>
</svg>
